{
DisplayStrings = (
CG
);
date = "2015-10-15 14:20:12 +0000";
designer = "Mirco Monsees";
designerURL = mircomonsees.com;
familyName = "Project Gin";
fontMaster = (
{
alignmentZones = (
"{480, 5}",
"{480, -45}",
"{70, -45}",
"{0, -5}"
);
ascender = 740;
capHeight = 700;
descender = -250;
id = "71FD7A9F-05F5-4D76-8D4F-547475A05E4C";
italicAngle = 6;
userData = {
GSCornerRadius = 5;
};
xHeight = 480;
}
);
glyphs = (
{
glyphname = C;
lastChange = "2015-11-09 20:29:34 +0000";
layers = (
{
background = {
paths = (
{
closed = 1;
nodes = (
"535 682 OFFCURVE",
"458 727 OFFCURVE",
"297 702 CURVE",
"29 633 OFFCURVE",
"-36 263 OFFCURVE",
"107 88 CURVE SMOOTH",
"174 4 OFFCURVE",
"287 -31 OFFCURVE",
"409 10 CURVE SMOOTH",
"689 102 OFFCURVE",
"703 472 OFFCURVE",
"580 626 CURVE SMOOTH"
);
},
{
closed = 1;
nodes = (
"311 70 OFFCURVE",
"265 102 OFFCURVE",
"231 177 CURVE SMOOTH",
"162 331 OFFCURVE",
"184 551 OFFCURVE",
"319 634 CURVE",
"376 634 OFFCURVE",
"423 610 OFFCURVE",
"461 523 CURVE SMOOTH",
"525 378 OFFCURVE",
"521 157 OFFCURVE",
"379 70 CURVE"
);
}
);
};
layerId = "71FD7A9F-05F5-4D76-8D4F-547475A05E4C";
name = "Regular Italic";
paths = (
{
closed = 1;
nodes = (
"551 79 LINE",
"526 54 OFFCURVE",
"456 -4 OFFCURVE",
"322 -8 CURVE SMOOTH",
"194 -12 OFFCURVE",
"67 68 OFFCURVE",
"37 245 CURVE SMOOTH",
"-2 474 OFFCURVE",
"146 709 OFFCURVE",
"376 709 CURVE SMOOTH",
"470 709 OFFCURVE",
"563 670 OFFCURVE",
"591 632 CURVE",
"577 578 OFFCURVE",
"564 533 OFFCURVE",
"554 482 CURVE",
"513 478 LINE",
"512 485 OFFCURVE",
"492 612 OFFCURVE",
"322 633 CURVE",
"250 610 OFFCURVE",
"166 447 OFFCURVE",
"201 270 CURVE SMOOTH",
"223 158 OFFCURVE",
"288 90 OFFCURVE",
"376 78 CURVE SMOOTH",
"437 70 OFFCURVE",
"508 107 OFFCURVE",
"538 140 CURVE"
);
}
);
width = 600;
}
);
unicode = 0043;
},
{
glyphname = E;
lastChange = "2015-11-09 18:16:01 +0000";
layers = (
{
background = {
paths = (
{
closed = 1;
nodes = (
"520 705 OFFCURVE",
"332 700 OFFCURVE",
"78 700 CURVE",
"74 657 LINE",
"79 650 OFFCURVE",
"127 649 OFFCURVE",
"128 615 CURVE SMOOTH",
"129 576 OFFCURVE",
"121 484 OFFCURVE",
"115 426 CURVE SMOOTH",
"99 263 OFFCURVE",
"68 97 OFFCURVE",
"67 82 CURVE SMOOTH",
"66 71 OFFCURVE",
"110 58 OFFCURVE",
"133 50 CURVE",
"9 52 LINE",
"4 0 LINE",
"126 3 OFFCURVE",
"291 0 OFFCURVE",
"307 0 CURVE",
"311 51 LINE",
"257 52 LINE",
"207 52 OFFCURVE",
"222 200 OFFCURVE",
"233 327 CURVE",
"250 327 OFFCURVE",
"266 327 OFFCURVE",
"284 327 CURVE SMOOTH",
"353 327 OFFCURVE",
"339 274 OFFCURVE",
"339 265 CURVE",
"380 268 LINE",
"383 289 OFFCURVE",
"393 394 OFFCURVE",
"381 404 CURVE",
"376 404 OFFCURVE",
"238 398 OFFCURVE",
"242 398 CURVE",
"256 535 OFFCURVE",
"264 592 OFFCURVE",
"277 642 CURVE",
"298 641 OFFCURVE",
"326 641 OFFCURVE",
"357 641 CURVE SMOOTH",
"446 641 OFFCURVE",
"474 578 OFFCURVE",
"487 529 CURVE",
"530 542 LINE",
"531 549 OFFCURVE",
"525 626 OFFCURVE",
"521 699 CURVE"
);
}
);
};
guideLines = (
{
angle = 12;
position = "{487, 529}";
},
{
angle = -12;
position = "{468, 175}";
},
{
angle = 84;
position = "{482, 548}";
}
);
layerId = "71FD7A9F-05F5-4D76-8D4F-547475A05E4C";
name = "Regular Italic";
paths = (
{
closed = 1;
nodes = (
"319 696 OFFCURVE",
"245 697 OFFCURVE",
"78 700 CURVE",
"74 657 LINE",
"78 650 OFFCURVE",
"124 649 OFFCURVE",
"125 616 CURVE SMOOTH",
"127 576 OFFCURVE",
"120 484 OFFCURVE",
"114 427 CURVE SMOOTH",
"101 299 OFFCURVE",
"66 94 OFFCURVE",
"68 81 CURVE SMOOTH",
"70 69 OFFCURVE",
"96 64 OFFCURVE",
"132 50 CURVE",
"11 51 LINE",
"6 0 LINE",
"194 3 OFFCURVE",
"275 3 OFFCURVE",
"490 -1 CURVE",
"512 163 LINE",
"468 173 LINE",
"464 166 OFFCURVE",
"457 95 OFFCURVE",
"393 74 CURVE SMOOTH",
"354 61 OFFCURVE",
"291 60 OFFCURVE",
"244 61 CURVE",
"215 94 OFFCURVE",
"222 233 OFFCURVE",
"233 336 CURVE",
"290 337 LINE",
"361 337 OFFCURVE",
"346 286 OFFCURVE",
"348 276 CURVE",
"388 279 LINE",
"394 322 OFFCURVE",
"404 405 OFFCURVE",
"387 410 CURVE SMOOTH",
"394 408 OFFCURVE",
"235 405 OFFCURVE",
"241 405 CURVE",
"244 456 OFFCURVE",
"263 593 OFFCURVE",
"275 637 CURVE",
"363 637 LINE",
"457 634 OFFCURVE",
"487 580 OFFCURVE",
"493 527 CURVE",
"541 537 LINE",
"528 699 LINE"
);
}
);
width = 553;
}
);
leftMetricsKey = I;
unicode = 0045;
},
{
glyphname = F;
lastChange = "2015-11-09 18:16:16 +0000";
layers = (
{
background = {
paths = (
{
closed = 1;
nodes = (
"458 175 LINE",
"455 172 OFFCURVE",
"445 96 OFFCURVE",
"383 74 CURVE SMOOTH",
"339 61 OFFCURVE",
"283 58 OFFCURVE",
"232 61 CURVE",
"214 150 OFFCURVE",
"225 278 OFFCURVE",
"242 433 CURVE SMOOTH",
"250 505 OFFCURVE",
"260 614 OFFCURVE",
"289 637 CURVE SMOOTH",
"306 650 OFFCURVE",
"323 649 OFFCURVE",
"330 650 CURVE",
"335 700 LINE",
"285 698 OFFCURVE",
"233 698 OFFCURVE",
"197 698 CURVE SMOOTH",
"166 698 OFFCURVE",
"117 699 OFFCURVE",
"75 700 CURVE",
"71 655 LINE",
"82 652 OFFCURVE",
"95 650 OFFCURVE",
"110 637 CURVE SMOOTH",
"136 613 OFFCURVE",
"123 510 OFFCURVE",
"113 418 CURVE SMOOTH",
"100 299 OFFCURVE",
"69 102 OFFCURVE",
"71 88 CURVE SMOOTH",
"75 77 OFFCURVE",
"91 68 OFFCURVE",
"127 52 CURVE",
"100 52 OFFCURVE",
"13 55 OFFCURVE",
"8 53 CURVE",
"2 0 LINE",
"109 2 OFFCURVE",
"259 1 OFFCURVE",
"289 0 CURVE SMOOTH",
"397 -2 OFFCURVE",
"480 -5 OFFCURVE",
"479 0 CURVE",
"489 89 OFFCURVE",
"505 155 OFFCURVE",
"504 161 CURVE"
);
}
);
};
guideLines = (
{
angle = -18;
position = "{162, 37}";
},
{
angle = 12;
position = "{382, 263}";
},
{
angle = -85;
position = "{476, 608}";
}
);
layerId = "71FD7A9F-05F5-4D76-8D4F-547475A05E4C";
name = "Regular Italic";
paths = (
{
closed = 1;
nodes = (
"311 696 OFFCURVE",
"246 696 OFFCURVE",
"78 700 CURVE",
"74 657 LINE",
"79 650 OFFCURVE",
"127 649 OFFCURVE",
"128 615 CURVE SMOOTH",
"129 576 OFFCURVE",
"121 484 OFFCURVE",
"115 426 CURVE SMOOTH",
"99 263 OFFCURVE",
"68 96 OFFCURVE",
"67 81 CURVE SMOOTH",
"66 70 OFFCURVE",
"110 58 OFFCURVE",
"133 50 CURVE",
"9 50 LINE",
"4 0 LINE",
"113 3 OFFCURVE",
"184 3 OFFCURVE",
"307 0 CURVE",
"311 50 LINE",
"257 50 LINE",
"207 50 OFFCURVE",
"222 200 OFFCURVE",
"233 327 CURVE",
"284 327 LINE",
"351 327 OFFCURVE",
"339 275 OFFCURVE",
"339 266 CURVE",
"380 269 LINE",
"383 290 OFFCURVE",
"393 394 OFFCURVE",
"381 404 CURVE",
"376 404 OFFCURVE",
"238 400 OFFCURVE",
"242 400 CURVE",
"256 537 OFFCURVE",
"264 592 OFFCURVE",
"277 642 CURVE",
"298 641 OFFCURVE",
"326 641 OFFCURVE",
"357 641 CURVE SMOOTH",
"453 641 OFFCURVE",
"477 588 OFFCURVE",
"482 532 CURVE",
"532 542 LINE",
"520 699 LINE"
);
}
);
width = 523;
}
);
leftMetricsKey = I;
rightMetricsKey = "=E-5";
unicode = 0046;
},
{
glyphname = G;
lastChange = "2015-11-09 18:14:10 +0000";
layers = (
{
background = {
paths = (
{
closed = 1;
nodes = (
"551 76 LINE",
"526 51 OFFCURVE",
"456 -4 OFFCURVE",
"322 -8 CURVE SMOOTH",
"194 -12 OFFCURVE",
"67 68 OFFCURVE",
"37 245 CURVE SMOOTH",
"-2 474 OFFCURVE",
"146 709 OFFCURVE",
"376 709 CURVE SMOOTH",
"470 709 OFFCURVE",
"573 670 OFFCURVE",
"601 632 CURVE",
"587 578 OFFCURVE",
"574 533 OFFCURVE",
"564 482 CURVE",
"521 478 LINE",
"520 485 OFFCURVE",
"502 612 OFFCURVE",
"322 633 CURVE",
"250 610 OFFCURVE",
"166 447 OFFCURVE",
"201 270 CURVE SMOOTH",
"223 158 OFFCURVE",
"288 87 OFFCURVE",
"376 75 CURVE SMOOTH",
"437 67 OFFCURVE",
"511 107 OFFCURVE",
"541 140 CURVE"
);
},
{
closed = 1;
nodes = (
"759 -185 LINE",
"756 -188 OFFCURVE",
"746 -264 OFFCURVE",
"687 -286 CURVE SMOOTH",
"644 -302 OFFCURVE",
"587 -302 OFFCURVE",
"536 -299 CURVE",
"518 -210 OFFCURVE",
"529 -82 OFFCURVE",
"546 73 CURVE SMOOTH",
"554 145 OFFCURVE",
"564 254 OFFCURVE",
"593 277 CURVE SMOOTH",
"610 290 OFFCURVE",
"627 289 OFFCURVE",
"634 290 CURVE",
"639 340 LINE",
"534 337 OFFCURVE",
"477 337 OFFCURVE",
"379 340 CURVE",
"375 290 LINE",
"386 290 OFFCURVE",
"404 286 OFFCURVE",
"415 274 CURVE SMOOTH",
"439 248 OFFCURVE",
"427 150 OFFCURVE",
"417 58 CURVE SMOOTH",
"404 -61 OFFCURVE",
"373 -258 OFFCURVE",
"375 -272 CURVE SMOOTH",
"379 -283 OFFCURVE",
"395 -293 OFFCURVE",
"431 -309 CURVE",
"312 -307 LINE",
"306 -360 LINE",
"468 -356 OFFCURVE",
"528 -356 OFFCURVE",
"783 -360 CURVE",
"793 -271 OFFCURVE",
"807 -201 OFFCURVE",
"808 -195 CURVE"
);
}
);
};
layerId = "71FD7A9F-05F5-4D76-8D4F-547475A05E4C";
name = "Regular Italic";
paths = (
{
closed = 1;
nodes = (
"181 711 OFFCURVE",
"-10 507 OFFCURVE",
"39 241 CURVE SMOOTH",
"73 59 OFFCURVE",
"184 9 OFFCURVE",
"287 -3 CURVE SMOOTH",
"382 -14 OFFCURVE",
"500 15 OFFCURVE",
"555 53 CURVE",
"556 130 OFFCURVE",
"566 234 OFFCURVE",
"573 256 CURVE SMOOTH",
"583 282 OFFCURVE",
"605 288 OFFCURVE",
"612 288 CURVE",
"617 338 LINE",
"522 335 OFFCURVE",
"499 336 OFFCURVE",
"400 339 CURVE",
"395 289 LINE",
"413 289 OFFCURVE",
"461 276 OFFCURVE",
"460 249 CURVE SMOOTH",
"458 194 OFFCURVE",
"458 108 OFFCURVE",
"402 72 CURVE",
"295 68 OFFCURVE",
"217 159 OFFCURVE",
"201 277 CURVE SMOOTH",
"173 481 OFFCURVE",
"254 606 OFFCURVE",
"322 633 CURVE",
"506 609 OFFCURVE",
"521 485 OFFCURVE",
"521 478 CURVE",
"565 482 LINE",
"575 534 OFFCURVE",
"586 580 OFFCURVE",
"602 632 CURVE",
"573 669 OFFCURVE",
"474 706 OFFCURVE",
"368 708 CURVE SMOOTH"
);
}
);
width = 600;
}
);
unicode = 0047;
},
{
glyphname = I;
lastChange = "2015-11-09 18:13:53 +0000";
layers = (
{
background = {
paths = (
{
closed = 1;
nodes = (
"467 175 LINE",
"464 172 OFFCURVE",
"454 96 OFFCURVE",
"395 74 CURVE SMOOTH",
"352 58 OFFCURVE",
"295 58 OFFCURVE",
"244 61 CURVE",
"226 150 OFFCURVE",
"237 278 OFFCURVE",
"254 433 CURVE SMOOTH",
"262 505 OFFCURVE",
"272 614 OFFCURVE",
"301 637 CURVE SMOOTH",
"318 650 OFFCURVE",
"335 649 OFFCURVE",
"342 650 CURVE",
"347 700 LINE",
"242 697 OFFCURVE",
"185 697 OFFCURVE",
"87 700 CURVE",
"83 650 LINE",
"94 650 OFFCURVE",
"112 646 OFFCURVE",
"123 634 CURVE SMOOTH",
"147 608 OFFCURVE",
"135 510 OFFCURVE",
"125 418 CURVE SMOOTH",
"112 299 OFFCURVE",
"81 102 OFFCURVE",
"83 88 CURVE SMOOTH",
"87 77 OFFCURVE",
"103 67 OFFCURVE",
"139 51 CURVE",
"20 53 LINE",
"14 0 LINE",
"176 4 OFFCURVE",
"236 4 OFFCURVE",
"491 0 CURVE",
"501 89 OFFCURVE",
"515 159 OFFCURVE",
"516 165 CURVE"
);
}
);
};
guideLines = (
{
angle = 84;
position = "{352, 461}";
}
);
layerId = "71FD7A9F-05F5-4D76-8D4F-547475A05E4C";
name = "Regular Italic";
paths = (
{
closed = 1;
nodes = (
"270 697 OFFCURVE",
"166 697 OFFCURVE",
"87 700 CURVE",
"82 649 LINE",
"89 649 OFFCURVE",
"117 645 OFFCURVE",
"128 628 CURVE SMOOTH",
"144 604 OFFCURVE",
"132 484 OFFCURVE",
"126 427 CURVE SMOOTH",
"111 290 OFFCURVE",
"79 103 OFFCURVE",
"81 88 CURVE SMOOTH",
"83 77 OFFCURVE",
"103 65 OFFCURVE",
"138 51 CURVE",
"20 52 LINE",
"15 0 LINE",
"148 3 OFFCURVE",
"172 3 OFFCURVE",
"307 0 CURVE",
"312 50 LINE",
"269 51 LINE",
"205 51 OFFCURVE",
"244 322 OFFCURVE",
"256 443 CURVE SMOOTH",
"268 564 OFFCURVE",
"274 609 OFFCURVE",
"300 635 CURVE SMOOTH",
"312 647 OFFCURVE",
"336 649 OFFCURVE",
"343 649 CURVE",
"348 699 LINE"
);
}
);
width = 349;
}
);
unicode = 0049;
},
{
glyphname = L;
lastChange = "2015-11-09 19:04:13 +0000";
layers = (
{
background = {
paths = (
{
closed = 1;
nodes = (
"528 705 OFFCURVE",
"333 697 OFFCURVE",
"78 700 CURVE",
"74 657 LINE",
"78 650 OFFCURVE",
"124 649 OFFCURVE",
"125 616 CURVE SMOOTH",
"127 576 OFFCURVE",
"120 484 OFFCURVE",
"114 427 CURVE SMOOTH",
"101 299 OFFCURVE",
"68 98 OFFCURVE",
"70 85 CURVE SMOOTH",
"72 73 OFFCURVE",
"84 67 OFFCURVE",
"120 50 CURVE",
"93 51 OFFCURVE",
"23 54 OFFCURVE",
"17 51 CURVE",
"11 0 LINE",
"61 1 OFFCURVE",
"119 1 OFFCURVE",
"158 1 CURVE",
"158 1 OFFCURVE",
"158 1 OFFCURVE",
"158 1 CURVE",
"167 1 OFFCURVE",
"175 1 OFFCURVE",
"185 1 CURVE SMOOTH",
"202 1 OFFCURVE",
"219 0 OFFCURVE",
"235 0 CURVE SMOOTH",
"378 -1 OFFCURVE",
"492 -8 OFFCURVE",
"490 -1 CURVE",
"500 90 OFFCURVE",
"515 152 OFFCURVE",
"512 158 CURVE",
"468 173 LINE",
"464 166 OFFCURVE",
"457 95 OFFCURVE",
"393 74 CURVE SMOOTH",
"354 61 OFFCURVE",
"291 58 OFFCURVE",
"244 59 CURVE",
"215 92 OFFCURVE",
"222 230 OFFCURVE",
"233 333 CURVE",
"250 336 OFFCURVE",
"268 337 OFFCURVE",
"290 337 CURVE SMOOTH",
"368 337 OFFCURVE",
"342 279 OFFCURVE",
"348 276 CURVE",
"388 278 LINE",
"394 321 OFFCURVE",
"404 405 OFFCURVE",
"387 410 CURVE SMOOTH",
"394 408 OFFCURVE",
"235 404 OFFCURVE",
"241 404 CURVE",
"242 419 OFFCURVE",
"244 430 OFFCURVE",
"245 441 CURVE SMOOTH",
"256 545 OFFCURVE",
"265 605 OFFCURVE",
"275 641 CURVE",
"295 641 OFFCURVE",
"332 641 OFFCURVE",
"363 641 CURVE SMOOTH",
"457 640 OFFCURVE",
"481 580 OFFCURVE",
"496 531 CURVE",
"537 543 LINE",
"538 549 OFFCURVE",
"533 625 OFFCURVE",
"528 699 CURVE"
);
}
);
};
guideLines = (
{
angle = -12;
position = "{451, 184}";
}
);
layerId = "71FD7A9F-05F5-4D76-8D4F-547475A05E4C";
name = "Regular Italic";
paths = (
{
closed = 1;
nodes = (
"458 175 LINE",
"455 172 OFFCURVE",
"445 96 OFFCURVE",
"386 74 CURVE SMOOTH",
"343 58 OFFCURVE",
"286 58 OFFCURVE",
"235 61 CURVE",
"217 150 OFFCURVE",
"228 278 OFFCURVE",
"245 433 CURVE SMOOTH",
"253 505 OFFCURVE",
"263 614 OFFCURVE",
"292 637 CURVE SMOOTH",
"309 650 OFFCURVE",
"326 649 OFFCURVE",
"333 650 CURVE",
"338 700 LINE",
"233 697 OFFCURVE",
"176 697 OFFCURVE",
"78 700 CURVE",
"73 650 LINE",
"84 650 OFFCURVE",
"103 646 OFFCURVE",
"114 634 CURVE SMOOTH",
"138 608 OFFCURVE",
"126 510 OFFCURVE",
"116 418 CURVE SMOOTH",
"103 299 OFFCURVE",
"72 102 OFFCURVE",
"74 88 CURVE SMOOTH",
"78 77 OFFCURVE",
"94 67 OFFCURVE",
"130 51 CURVE",
"11 53 LINE",
"5 0 LINE",
"167 4 OFFCURVE",
"227 4 OFFCURVE",
"482 0 CURVE",
"492 89 OFFCURVE",
"506 159 OFFCURVE",
"507 165 CURVE"
);
}
);
width = 531;
}
);
leftMetricsKey = I;
unicode = 004C;
},
{
glyphname = O;
lastChange = "2015-11-09 16:54:59 +0000";
layers = (
{
background = {
paths = (
{
closed = 1;
nodes = (
"548 672 OFFCURVE",
"445 733 OFFCURVE",
"295 700 CURVE SMOOTH",
"48 645 OFFCURVE",
"-45 279 OFFCURVE",
"112 81 CURVE SMOOTH",
"158 23 OFFCURVE",
"264 -33 OFFCURVE",
"402 7 CURVE SMOOTH",
"648 78 OFFCURVE",
"726 421 OFFCURVE",
"585 619 CURVE SMOOTH"
);
},
{
closed = 1;
nodes = (
"378 80 LINE",
"378 80 OFFCURVE",
"287 41 OFFCURVE",
"220 171 CURVE SMOOTH",
"154 303 OFFCURVE",
"176 533 OFFCURVE",
"311 617 CURVE",
"311 617 LINE",
"311 617 OFFCURVE",
"401 652 OFFCURVE",
"467 520 CURVE SMOOTH",
"533 389 OFFCURVE",
"512 165 OFFCURVE",
"378 80 CURVE"
);
}
);
};
layerId = "71FD7A9F-05F5-4D76-8D4F-547475A05E4C";
name = "Regular Italic";
paths = (
{
closed = 1;
nodes = (
"535 682 OFFCURVE",
"458 727 OFFCURVE",
"297 702 CURVE",
"29 633 OFFCURVE",
"-36 263 OFFCURVE",
"107 88 CURVE SMOOTH",
"174 4 OFFCURVE",
"287 -31 OFFCURVE",
"409 10 CURVE SMOOTH",
"689 102 OFFCURVE",
"703 472 OFFCURVE",
"580 626 CURVE SMOOTH"
);
},
{
closed = 1;
nodes = (
"311 70 OFFCURVE",
"265 102 OFFCURVE",
"231 177 CURVE SMOOTH",
"162 331 OFFCURVE",
"184 551 OFFCURVE",
"319 634 CURVE",
"376 634 OFFCURVE",
"423 610 OFFCURVE",
"461 523 CURVE SMOOTH",
"525 378 OFFCURVE",
"521 157 OFFCURVE",
"379 70 CURVE"
);
}
);
width = 663;
}
);
unicode = 004F;
},
{
glyphname = P;
lastChange = "2015-11-09 18:14:42 +0000";
layers = (
{
background = {
paths = (
{
closed = 1;
nodes = (
"364 293 OFFCURVE",
"400 304 CURVE SMOOTH",
"493 332 OFFCURVE",
"559 435 OFFCURVE",
"562 518 CURVE SMOOTH",
"570 739 OFFCURVE",
"277 702 OFFCURVE",
"94 699 CURVE",
"90 649 LINE",
"116 648 OFFCURVE",
"129 638 OFFCURVE",
"135 624 CURVE SMOOTH",
"142 606 OFFCURVE",
"133 466 OFFCURVE",
"117 326 CURVE SMOOTH",
"95 137 OFFCURVE",
"80 91 OFFCURVE",
"84 78 CURVE SMOOTH",
"87 69 OFFCURVE",
"122 58 OFFCURVE",
"146 51 CURVE",
"27 51 LINE",
"21 0 LINE",
"141 3 OFFCURVE",
"183 3 OFFCURVE",
"298 0 CURVE",
"301 50 LINE",
"273 50 LINE",
"226 50 OFFCURVE",
"230 171 OFFCURVE",
"245 299 CURVE",
"281 295 OFFCURVE"
);
},
{
closed = 1;
nodes = (
"340 345 OFFCURVE",
"299 349 OFFCURVE",
"250 367 CURVE",
"257 434 OFFCURVE",
"264 489 OFFCURVE",
"273 556 CURVE",
"285 619 OFFCURVE",
"290 647 OFFCURVE",
"312 647 CURVE SMOOTH",
"434 649 OFFCURVE",
"473 386 OFFCURVE",
"360 345 CURVE"
);
},
{
closed = 1;
nodes = (
"319 298 LINE",
"377 36 OFFCURVE",
"401 35 OFFCURVE",
"404 32 CURVE SMOOTH",
"410 26 OFFCURVE",
"467 -1 OFFCURVE",
"520 -1 CURVE",
"555 7 OFFCURVE",
"582 25 OFFCURVE",
"587 28 CURVE",
"583 74 LINE",
"563 66 OFFCURVE",
"549 65 OFFCURVE",
"538 63 CURVE",
"486 119 OFFCURVE",
"447 226 OFFCURVE",
"422 325 CURVE"
);
}
);
};
guideLines = (
{
angle = 84;
position = "{621, 311}";
}
);
layerId = "71FD7A9F-05F5-4D76-8D4F-547475A05E4C";
name = "Regular Italic";
paths = (
{
closed = 1;
nodes = (
"235 703 OFFCURVE",
"372 713 OFFCURVE",
"472 670 CURVE SMOOTH",
"636 599 OFFCURVE",
"566 303 OFFCURVE",
"342 276 CURVE SMOOTH",
"283 269 OFFCURVE",
"185 291 OFFCURVE",
"162 321 CURVE SMOOTH",
"144 345 OFFCURVE",
"208 415 OFFCURVE",
"216 393 CURVE SMOOTH",
"227 362 OFFCURVE",
"260 345 OFFCURVE",
"293 335 CURVE",
"494 311 OFFCURVE",
"446 650 OFFCURVE",
"312 648 CURVE SMOOTH",
"277 647 OFFCURVE",
"276 590 OFFCURVE",
"247 338 CURVE",
"237 195 OFFCURVE",
"215 51 OFFCURVE",
"276 51 CURVE",
"321 50 LINE",
"316 0 LINE",
"193 3 OFFCURVE",
"147 3 OFFCURVE",
"22 0 CURVE",
"27 51 LINE",
"146 51 LINE",
"112 63 OFFCURVE",
"86 68 OFFCURVE",
"84 80 CURVE SMOOTH",
"81 93 OFFCURVE",
"119 369 OFFCURVE",
"126 426 CURVE SMOOTH",
"132 485 OFFCURVE",
"143 606 OFFCURVE",
"133 628 CURVE SMOOTH",
"126 643 OFFCURVE",
"99 650 OFFCURVE",
"88 649 CURVE",
"93 700 LINE"
);
}
);
width = 583;
}
);
leftMetricsKey = I;
unicode = 0050;
},
{
glyphname = R;
lastChange = "2015-11-09 18:14:59 +0000";
layers = (
{
background = {
paths = (
{
closed = 1;
nodes = (
"555 74 LINE",
"541 69 OFFCURVE",
"525 65 OFFCURVE",
"510 63 CURVE",
"493 78 OFFCURVE",
"473 123 OFFCURVE",
"471 178 CURVE",
"561 218 OFFCURVE",
"572 429 OFFCURVE",
"560 465 CURVE",
"467 480 LINE",
"399 484 OFFCURVE",
"306 319 OFFCURVE",
"289 265 CURVE",
"310 446 OFFCURVE",
"353 688 OFFCURVE",
"338 699 CURVE SMOOTH",
"325 708 OFFCURVE",
"192 746 OFFCURVE",
"172 739 CURVE",
"161 692 LINE",
"200 674 OFFCURVE",
"221 619 OFFCURVE",
"188 353 CURVE SMOOTH",
"171 217 OFFCURVE",
"143 42 OFFCURVE",
"141 31 CURVE",
"141 19 OFFCURVE",
"224 -3 OFFCURVE",
"267 -3 CURVE SMOOTH",
"282 -3 OFFCURVE",
"284 28 OFFCURVE",
"277 117 CURVE",
"306 260 OFFCURVE",
"409 380 OFFCURVE",
"436 392 CURVE",
"445 380 OFFCURVE",
"446 237 OFFCURVE",
"406 202 CURVE SMOOTH",
"395 193 OFFCURVE",
"379 185 OFFCURVE",
"362 183 CURVE",
"361 135 OFFCURVE",
"373 42 OFFCURVE",
"386 31 CURVE",
"406 19 OFFCURVE",
"443 -1 OFFCURVE",
"492 -1 CURVE",
"527 7 OFFCURVE",
"543 18 OFFCURVE",
"559 28 CURVE"
);
}
);
};
guideLines = (
{
position = "{487, 480}";
}
);
layerId = "71FD7A9F-05F5-4D76-8D4F-547475A05E4C";
name = "Regular Italic";
paths = (
{
closed = 1;
nodes = (
"261 295 OFFCURVE",
"344 293 OFFCURVE",
"380 304 CURVE SMOOTH",
"473 332 OFFCURVE",
"539 435 OFFCURVE",
"542 518 CURVE SMOOTH",
"550 739 OFFCURVE",
"258 702 OFFCURVE",
"75 699 CURVE",
"70 649 LINE",
"96 648 OFFCURVE",
"109 638 OFFCURVE",
"115 624 CURVE SMOOTH",
"122 606 OFFCURVE",
"113 466 OFFCURVE",
"97 326 CURVE SMOOTH",
"75 137 OFFCURVE",
"60 91 OFFCURVE",
"64 78 CURVE SMOOTH",
"67 69 OFFCURVE",
"102 58 OFFCURVE",
"126 51 CURVE",
"7 51 LINE",
"1 0 LINE",
"121 3 OFFCURVE",
"163 3 OFFCURVE",
"278 0 CURVE",
"281 50 LINE",
"253 50 LINE",
"206 50 OFFCURVE",
"210 171 OFFCURVE",
"225 299 CURVE"
);
},
{
closed = 1;
nodes = (
"320 345 OFFCURVE",
"279 349 OFFCURVE",
"230 367 CURVE",
"237 434 OFFCURVE",
"244 489 OFFCURVE",
"253 556 CURVE",
"265 634 OFFCURVE",
"270 651 OFFCURVE",
"292 651 CURVE SMOOTH",
"414 653 OFFCURVE",
"453 386 OFFCURVE",
"340 345 CURVE"
);
},
{
closed = 1;
nodes = (
"299 298 LINE",
"357 36 OFFCURVE",
"381 35 OFFCURVE",
"384 32 CURVE SMOOTH",
"390 26 OFFCURVE",
"447 -1 OFFCURVE",
"500 -1 CURVE",
"535 7 OFFCURVE",
"562 25 OFFCURVE",
"567 28 CURVE",
"563 74 LINE",
"543 66 OFFCURVE",
"529 65 OFFCURVE",
"518 63 CURVE",
"466 119 OFFCURVE",
"427 226 OFFCURVE",
"402 325 CURVE"
);
}
);
width = 617;
}
);
leftMetricsKey = I;
unicode = 0052;
},
{
glyphname = T;
lastChange = "2015-11-09 18:15:15 +0000";
layers = (
{
guideLines = (
{
position = "{392, 637}";
},
{
angle = -85;
position = "{571, 569}";
},
{
angle = 84;
position = "{487, 570}";
}
);
layerId = "71FD7A9F-05F5-4D76-8D4F-547475A05E4C";
name = "Regular Italic";
paths = (
{
closed = 1;
nodes = (
"76 700 LINE",
"41 528 LINE",
"86 518 LINE",
"95 561 OFFCURVE",
"122 635 OFFCURVE",
"212 635 CURVE SMOOTH",
"225 635 OFFCURVE",
"242 635 OFFCURVE",
"258 635 CURVE",
"264 597 OFFCURVE",
"248 469 OFFCURVE",
"245 427 CURVE SMOOTH",
"234 278 OFFCURVE",
"196 102 OFFCURVE",
"198 88 CURVE SMOOTH",
"200 78 OFFCURVE",
"213 69 OFFCURVE",
"248 51 CURVE",
"138 51 LINE",
"133 0 LINE",
"255 3 OFFCURVE",
"297 3 OFFCURVE",
"423 0 CURVE",
"428 50 LINE",
"387 50 LINE",
"323 50 OFFCURVE",
"363 322 OFFCURVE",
"377 441 CURVE SMOOTH",
"388 535 OFFCURVE",
"392 597 OFFCURVE",
"402 635 CURVE",
"415 635 OFFCURVE",
"431 635 OFFCURVE",
"447 635 CURVE SMOOTH",
"532 634 OFFCURVE",
"568 578 OFFCURVE",
"573 518 CURVE",
"622 529 LINE",
"623 536 OFFCURVE",
"614 616 OFFCURVE",
"610 700 CURVE"
);
}
);
width = 594;
}
);
unicode = 0054;
},
{
glyphname = a;
lastChange = "2015-11-09 00:00:19 +0000";
layers = (
{
background = {
paths = (
{
closed = 1;
nodes = (
"480 454 OFFCURVE",
"421 482 OFFCURVE",
"382 482 CURVE",
"338 370 LINE",
"308 265 OFFCURVE",
"268 75 OFFCURVE",
"287 44 CURVE SMOOTH",
"297 28 OFFCURVE",
"356 -2 OFFCURVE",
"410 -2 CURVE",
"442 7 OFFCURVE",
"461 20 OFFCURVE",
"473 28 CURVE",
"469 79 LINE",
"455 74 OFFCURVE",
"433 67 OFFCURVE",
"418 67 CURVE",
"398 132 OFFCURVE",
"454 354 OFFCURVE",
"474 427 CURVE"
);
}
);
};
guideLines = (
{
angle = -20;
position = "{408, 503}";
}
);
layerId = "71FD7A9F-05F5-4D76-8D4F-547475A05E4C";
name = "Regular Italic";
paths = (
{
closed = 1;
nodes = (
"295 77 OFFCURVE",
"342 260 OFFCURVE",
"350 295 CURVE",
"350 295 OFFCURVE",
"342 304 OFFCURVE",
"323 311 CURVE",
"314 248 OFFCURVE",
"220 116 OFFCURVE",
"204 109 CURVE",
"197 109 OFFCURVE",
"187 115 OFFCURVE",
"176 138 CURVE SMOOTH",
"139 216 OFFCURVE",
"142 368 OFFCURVE",
"221 417 CURVE",
"221 417 LINE SMOOTH",
"221 417 OFFCURVE",
"294 411 OFFCURVE",
"334 327 CURVE",
"334 327 OFFCURVE",
"399 360 OFFCURVE",
"399 416 CURVE",
"368 457 OFFCURVE",
"284 490 OFFCURVE",
"201 483 CURVE",
"27 433 OFFCURVE",
"-29 171 OFFCURVE",
"78 41 CURVE SMOOTH",
"111 1 OFFCURVE",
"140 -4 OFFCURVE",
"178 0 CURVE"
);
},
{
closed = 1;
nodes = (
"434 5 OFFCURVE",
"460 17 OFFCURVE",
"476 28 CURVE",
"472 74 LINE",
"459 69 OFFCURVE",
"433 62 OFFCURVE",
"418 62 CURVE",
"390 91 OFFCURVE",
"434 322 OFFCURVE",
"442 352 CURVE SMOOTH",
"450 383 OFFCURVE",
"461 424 OFFCURVE",
"472 456 CURVE",
"460 467 OFFCURVE",
"439 475 OFFCURVE",
"426 479 CURVE SMOOTH",
"408 484 OFFCURVE",
"398 475 OFFCURVE",
"392 457 CURVE SMOOTH",
"365 375 OFFCURVE",
"339 399 OFFCURVE",
"334 371 CURVE",
"329 364 OFFCURVE",
"327 362 OFFCURVE",
"326 347 CURVE SMOOTH",
"319 243 OFFCURVE",
"278 68 OFFCURVE",
"294 42 CURVE SMOOTH",
"304 26 OFFCURVE",
"355 -2 OFFCURVE",
"405 -1 CURVE"
);
}
);
width = 508;
}
);
leftMetricsKey = o;
rightMetricsKey = i;
unicode = 0061;
},
{
glyphname = b;
lastChange = "2015-11-08 20:34:49 +0000";
layers = (
{
guideLines = (
{
angle = -12;
position = "{232, 724}";
},
{
angle = -20;
position = "{70, -2}";
}
);
layerId = "71FD7A9F-05F5-4D76-8D4F-547475A05E4C";
name = "Regular Italic";
paths = (
{
closed = 1;
nodes = (
"424 480 OFFCURVE",
"395 487 OFFCURVE",
"356 480 CURVE",
"296 442 OFFCURVE",
"243 346 OFFCURVE",
"228 300 CURVE",
"253 496 OFFCURVE",
"286 685 OFFCURVE",
"280 695 CURVE SMOOTH",
"275 704 OFFCURVE",
"127 741 OFFCURVE",
"114 734 CURVE",
"103 689 LINE",
"115 682 OFFCURVE",
"144 661 OFFCURVE",
"146 578 CURVE SMOOTH",
"149 442 OFFCURVE",
"111 203 OFFCURVE",
"94 123 CURVE SMOOTH",
"87 91 OFFCURVE",
"78 48 OFFCURVE",
"65 17 CURVE",
"72 13 OFFCURVE",
"83 6 OFFCURVE",
"104 1 CURVE SMOOTH",
"121 -3 OFFCURVE",
"129 -2 OFFCURVE",
"139 22 CURVE",
"151 50 LINE",
"186 18 OFFCURVE",
"267 -8 OFFCURVE",
"331 -1 CURVE",
"507 48 OFFCURVE",
"564 312 OFFCURVE",
"456 442 CURVE SMOOTH"
);
},
{
closed = 1;
nodes = (
"313 66 LINE SMOOTH",
"313 66 OFFCURVE",
"264 56 OFFCURVE",
"211 125 CURVE",
"214 170 LINE",
"221 237 OFFCURVE",
"313 360 OFFCURVE",
"331 365 CURVE",
"338 365 OFFCURVE",
"353 356 OFFCURVE",
"363 331 CURVE SMOOTH",
"390 264 OFFCURVE",
"392 110 OFFCURVE",
"313 66 CURVE"
);
}
);
width = 529;
}
);
leftMetricsKey = i;
rightMetricsKey = o;
unicode = 0062;
},
{
glyphname = c;
lastChange = "2015-11-09 16:50:59 +0000";
layers = (
{
background = {
paths = (
{
closed = 1;
nodes = (
"291 336 OFFCURVE",
"281 410 OFFCURVE",
"221 410 CURVE",
"137 356 OFFCURVE",
"136 219 OFFCURVE",
"167 144 CURVE SMOOTH",
"184 104 OFFCURVE",
"220 79 OFFCURVE",
"248 76 CURVE SMOOTH",
"305 70 OFFCURVE",
"356 106 OFFCURVE",
"372 122 CURVE",
"377 103 OFFCURVE",
"381 87 OFFCURVE",
"384 67 CURVE",
"375 57 OFFCURVE",
"334 23 OFFCURVE",
"290 10 CURVE SMOOTH",
"228 -8 OFFCURVE",
"132 -11 OFFCURVE",
"77 53 CURVE SMOOTH",
"-32 179 OFFCURVE",
"28 433 OFFCURVE",
"207 483 CURVE",
"338 499 OFFCURVE",
"390 441 OFFCURVE",
"402 377 CURVE SMOOTH",
"423 263 OFFCURVE",
"315 152 OFFCURVE",
"143 175 CURVE",
"83 207 OFFCURVE",
"90 206 OFFCURVE",
"137 229 CURVE",
"228 215 OFFCURVE",
"291 280 OFFCURVE",
"291 318 CURVE SMOOTH"
);
}
);
};
layerId = "71FD7A9F-05F5-4D76-8D4F-547475A05E4C";
name = "Regular Italic";
paths = (
{
closed = 1;
nodes = (
"296 382 OFFCURVE",
"259 403 OFFCURVE",
"217 404 CURVE",
"136 357 OFFCURVE",
"134 216 OFFCURVE",
"166 146 CURVE SMOOTH",
"182 111 OFFCURVE",
"212 78 OFFCURVE",
"249 75 CURVE SMOOTH",
"304 70 OFFCURVE",
"345 101 OFFCURVE",
"363 114 CURVE",
"375 60 LINE",
"349 31 OFFCURVE",
"297 8 OFFCURVE",
"247 1 CURVE",
"168 -9 OFFCURVE",
"114 13 OFFCURVE",
"74 57 CURVE",
"-28 169 OFFCURVE",
"25 458 OFFCURVE",
"223 482 CURVE",
"301 488 OFFCURVE",
"346 475 OFFCURVE",
"379 441 CURVE",
"376 408 OFFCURVE",
"361 376 OFFCURVE",
"343 339 CURVE SMOOTH",
"341 335 OFFCURVE",
"335 334 OFFCURVE",
"331 339 CURVE SMOOTH"
);
}
);
width = 409;
}
);
leftMetricsKey = o;
rightMetricsKey = "=e-5";
unicode = 0063;
},
{
glyphname = d;
lastChange = "2015-11-09 00:00:38 +0000";
layers = (
{
background = {
paths = (
{
closed = 1;
nodes = (
"489 454 OFFCURVE",
"430 482 OFFCURVE",
"391 482 CURVE",
"347 370 LINE",
"317 265 OFFCURVE",
"277 75 OFFCURVE",
"296 44 CURVE SMOOTH",
"306 28 OFFCURVE",
"365 -2 OFFCURVE",
"419 -2 CURVE",
"451 7 OFFCURVE",
"470 20 OFFCURVE",
"482 28 CURVE",
"478 79 LINE",
"464 74 OFFCURVE",
"442 67 OFFCURVE",
"427 67 CURVE",
"407 132 OFFCURVE",
"463 354 OFFCURVE",
"483 427 CURVE"
);
}
);
};
guideLines = (
{
position = "{317, 410}";
},
{
angle = -18;
position = "{516, 111}";
},
{
position = "{1184, 374}";
}
);
layerId = "71FD7A9F-05F5-4D76-8D4F-547475A05E4C";
name = "Regular Italic";
paths = (
{
closed = 1;
nodes = (
"439 5 OFFCURVE",
"459 15 OFFCURVE",
"477 28 CURVE",
"473 74 LINE",
"458 69 OFFCURVE",
"433 62 OFFCURVE",
"422 62 CURVE",
"399 88 OFFCURVE",
"426 265 OFFCURVE",
"450 432 CURVE SMOOTH",
"463 521 OFFCURVE",
"494 680 OFFCURVE",
"485 703 CURVE",
"476 709 OFFCURVE",
"326 745 OFFCURVE",
"313 738 CURVE",
"302 691 LINE",
"318 684 OFFCURVE",
"342 663 OFFCURVE",
"348 586 CURVE SMOOTH",
"353 520 OFFCURVE",
"345 442 OFFCURVE",
"326 326 CURVE SMOOTH",
"309 235 OFFCURVE",
"277 58 OFFCURVE",
"300 40 CURVE SMOOTH",
"308 34 OFFCURVE",
"359 -2 OFFCURVE",
"414 -2 CURVE"
);
},
{
closed = 1;
nodes = (
"295 77 OFFCURVE",
"342 277 OFFCURVE",
"350 312 CURVE",
"350 312 OFFCURVE",
"342 304 OFFCURVE",
"323 311 CURVE",
"314 248 OFFCURVE",
"220 116 OFFCURVE",
"204 109 CURVE",
"197 109 OFFCURVE",
"187 115 OFFCURVE",
"176 138 CURVE SMOOTH",
"139 216 OFFCURVE",
"142 368 OFFCURVE",
"221 417 CURVE",
"221 417 LINE SMOOTH",
"221 417 OFFCURVE",
"307 408 OFFCURVE",
"336 328 CURVE",
"336 328 OFFCURVE",
"391 360 OFFCURVE",
"391 416 CURVE",
"360 457 OFFCURVE",
"284 490 OFFCURVE",
"201 483 CURVE",
"27 433 OFFCURVE",
"-29 171 OFFCURVE",
"78 41 CURVE SMOOTH",
"111 1 OFFCURVE",
"140 -4 OFFCURVE",
"178 0 CURVE"
);
}
);
width = 509;
}
);
leftMetricsKey = o;
rightMetricsKey = i;
unicode = 0064;
},
{
glyphname = e;
lastChange = "2015-11-09 00:17:36 +0000";
layers = (
{
background = {
paths = (
{
closed = 1;
nodes = (
"376 466 OFFCURVE",
"323 497 OFFCURVE",
"213 480 CURVE",
"30 433 OFFCURVE",
"-14 180 OFFCURVE",
"83 60 CURVE SMOOTH",
"129 3 OFFCURVE",
"206 -21 OFFCURVE",
"290 7 CURVE SMOOTH",
"481 70 OFFCURVE",
"490 323 OFFCURVE",
"406 428 CURVE SMOOTH"
);
},
{
closed = 1;
nodes = (
"224 78 OFFCURVE",
"197 97 OFFCURVE",
"177 141 CURVE SMOOTH",
"136 231 OFFCURVE",
"149 361 OFFCURVE",
"229 409 CURVE",
"262 409 OFFCURVE",
"290 395 OFFCURVE",
"312 344 CURVE SMOOTH",
"349 259 OFFCURVE",
"347 129 OFFCURVE",
"263 78 CURVE"
);
}
);
};
layerId = "71FD7A9F-05F5-4D76-8D4F-547475A05E4C";
name = "Regular Italic";
paths = (
{
closed = 1;
nodes = (
"298 336 OFFCURVE",
"288 410 OFFCURVE",
"228 410 CURVE",
"144 356 OFFCURVE",
"143 219 OFFCURVE",
"174 144 CURVE SMOOTH",
"191 104 OFFCURVE",
"227 80 OFFCURVE",
"255 77 CURVE SMOOTH",
"312 71 OFFCURVE",
"363 106 OFFCURVE",
"379 122 CURVE",
"391 67 LINE",
"382 57 OFFCURVE",
"341 23 OFFCURVE",
"297 10 CURVE SMOOTH",
"235 -8 OFFCURVE",
"139 -11 OFFCURVE",
"84 53 CURVE SMOOTH",
"-25 179 OFFCURVE",
"35 433 OFFCURVE",
"214 483 CURVE",
"345 499 OFFCURVE",
"397 441 OFFCURVE",
"409 377 CURVE SMOOTH",
"430 263 OFFCURVE",
"322 152 OFFCURVE",
"150 175 CURVE",
"90 207 OFFCURVE",
"97 206 OFFCURVE",
"144 229 CURVE",
"235 215 OFFCURVE",
"298 280 OFFCURVE",
"298 318 CURVE SMOOTH"
);
}
);
width = 429;
}
);
leftMetricsKey = o;
rightMetricsKey = "=o-5";
unicode = 0065;
},
{
glyphname = f;
lastChange = "2015-11-08 17:56:42 +0000";
layers = (
{
layerId = "71FD7A9F-05F5-4D76-8D4F-547475A05E4C";
name = "Regular Italic";
paths = (
{
closed = 1;
nodes = (
"304 37 OFFCURVE",
"297 102 OFFCURVE",
"301 141 CURVE",
"306 241 OFFCURVE",
"321 418 OFFCURVE",
"351 540 CURVE SMOOTH",
"373 630 OFFCURVE",
"402 655 OFFCURVE",
"454 601 CURVE",
"485 642 LINE",
"448 698 OFFCURVE",
"249 828 OFFCURVE",
"233 614 CURVE SMOOTH",
"195 112 OFFCURVE",
"180 72 OFFCURVE",
"194 55 CURVE SMOOTH",
"204 43 OFFCURVE",
"307 7 OFFCURVE",
"320 15 CURVE"
);
},
{
closed = 1;
nodes = (
"313 -3 OFFCURVE",
"314 44 OFFCURVE",
"309 113 CURVE",
"310 192 OFFCURVE",
"333 440 OFFCURVE",
"332 442 CURVE",
"207 344 LINE",
"206 313 OFFCURVE",
"176 79 OFFCURVE",
"170 37 CURVE SMOOTH",
"167 17 OFFCURVE",
"259 -6 OFFCURVE",
"297 -4 CURVE SMOOTH"
);
},
{
closed = 1;
nodes = (
"299 19 OFFCURVE",
"320 291 OFFCURVE",
"334 403 CURVE",
"375 403 OFFCURVE",
"418 400 OFFCURVE",
"421 400 CURVE SMOOTH",
"431 400 OFFCURVE",
"440 480 OFFCURVE",
"434 480 CURVE",
"431 483 OFFCURVE",
"380 478 OFFCURVE",
"339 478 CURVE",
"345 543 OFFCURVE",
"355 594 OFFCURVE",
"352 600 CURVE SMOOTH",
"340 612 OFFCURVE",
"278 626 OFFCURVE",
"272 616 CURVE SMOOTH",
"269 610 OFFCURVE",
"267 585 OFFCURVE",
"260 546 CURVE SMOOTH",
"251 499 OFFCURVE",
"243 472 OFFCURVE",
"193 472 CURVE SMOOTH",
"177 472 OFFCURVE",
"172 472 OFFCURVE",
"169 472 CURVE",
"160 469 OFFCURVE",
"159 411 OFFCURVE",
"166 411 CURVE SMOOTH",
"169 411 OFFCURVE",
"197 410 OFFCURVE",
"216 411 CURVE",
"190 194 OFFCURVE",
"165 62 OFFCURVE",
"184 47 CURVE SMOOTH",
"190 40 OFFCURVE",
"201 9 OFFCURVE",
"261 15 CURVE SMOOTH"
);
}
);
width = 600;
}
);
unicode = 0066;
},
{
glyphname = h;
lastChange = "2015-11-09 00:04:14 +0000";
layers = (
{
background = {
paths = (
{
closed = 1;
nodes = (
"220 -2 OFFCURVE",
"247 37 OFFCURVE",
"263 85 CURVE",
"266 97 OFFCURVE",
"252 99 OFFCURVE",
"236 105 CURVE SMOOTH",
"230 107 OFFCURVE",
"227 104 OFFCURVE",
"224 97 CURVE SMOOTH",
"214 74 OFFCURVE",
"206 64 OFFCURVE",
"198 64 CURVE SMOOTH",
"190 64 OFFCURVE",
"175 81 OFFCURVE",
"174 127 CURVE SMOOTH",
"173 183 OFFCURVE",
"189 300 OFFCURVE",
"206 432 CURVE SMOOTH",
"217 521 OFFCURVE",
"249 675 OFFCURVE",
"236 698 CURVE SMOOTH",
"227 711 OFFCURVE",
"83 746 OFFCURVE",
"71 739 CURVE",
"71 739 OFFCURVE",
"48 702 OFFCURVE",
"66 695 CURVE SMOOTH",
"93 685 OFFCURVE",
"104 637 OFFCURVE",
"102 559 CURVE SMOOTH",
"100 493 OFFCURVE",
"94 442 OFFCURVE",
"79 326 CURVE SMOOTH",
"67 234 OFFCURVE",
"35 54 OFFCURVE",
"59 36 CURVE SMOOTH",
"67 30 OFFCURVE",
"124 -7 OFFCURVE",
"181 -4 CURVE SMOOTH"
);
}
);
};
layerId = "71FD7A9F-05F5-4D76-8D4F-547475A05E4C";
name = "Regular Italic";
paths = (
{
closed = 1;
nodes = (
"468 454 OFFCURVE",
"409 482 OFFCURVE",
"370 482 CURVE SMOOTH",
"264 482 OFFCURVE",
"184 255 OFFCURVE",
"188 273 CURVE",
"209 454 OFFCURVE",
"251 688 OFFCURVE",
"236 699 CURVE SMOOTH",
"223 708 OFFCURVE",
"90 746 OFFCURVE",
"70 739 CURVE",
"70 739 OFFCURVE",
"50 704 OFFCURVE",
"66 695 CURVE SMOOTH",
"99 677 OFFCURVE",
"116 619 OFFCURVE",
"84 353 CURVE SMOOTH",
"68 217 OFFCURVE",
"41 45 OFFCURVE",
"39 34 CURVE",
"39 22 OFFCURVE",
"120 -3 OFFCURVE",
"163 -3 CURVE SMOOTH",
"178 -3 OFFCURVE",
"181 14 OFFCURVE",
"174 103 CURVE",
"203 260 OFFCURVE",
"299 356 OFFCURVE",
"326 370 CURVE",
"296 265 OFFCURVE",
"256 75 OFFCURVE",
"275 44 CURVE SMOOTH",
"285 28 OFFCURVE",
"344 -2 OFFCURVE",
"398 -2 CURVE",
"430 7 OFFCURVE",
"449 20 OFFCURVE",
"461 28 CURVE",
"457 74 LINE",
"443 69 OFFCURVE",
"421 62 OFFCURVE",
"406 62 CURVE",
"386 127 OFFCURVE",
"442 354 OFFCURVE",
"462 427 CURVE"
);
}
);
width = 493;
}
);
leftKerningGroup = l;
leftMetricsKey = l;
rightKerningGroup = i;
rightMetricsKey = i;
unicode = 0068;
},
{
glyphname = i;
lastChange = "2015-11-09 00:05:11 +0000";
layers = (
{
background = {
paths = (
{
closed = 1;
nodes = (
"203 461 OFFCURVE",
"137 479 OFFCURVE",
"89 479 CURVE",
"68 471 OFFCURVE",
"82 317 OFFCURVE",
"84 309 CURVE",
"74 270 OFFCURVE",
"53 159 OFFCURVE",
"50 112 CURVE SMOOTH",
"44 27 OFFCURVE",
"88 0 OFFCURVE",
"160 0 CURVE",
"199 8 OFFCURVE",
"220 21 OFFCURVE",
"232 30 CURVE",
"228 83 LINE",
"214 76 OFFCURVE",
"188 68 OFFCURVE",
"172 68 CURVE",
"157 122 OFFCURVE",
"200 379 OFFCURVE",
"217 444 CURVE"
);
}
);
};
guideLines = (
{
angle = -20;
position = "{85, 30}";
}
);
layerId = "71FD7A9F-05F5-4D76-8D4F-547475A05E4C";
name = "Regular Italic";
paths = (
{
closed = 1;
nodes = (
"107 708 OFFCURVE",
"129 707 OFFCURVE",
"147 704 CURVE SMOOTH",
"165 701 OFFCURVE",
"226 693 OFFCURVE",
"225 668 CURVE SMOOTH",
"225 643 OFFCURVE",
"212 565 OFFCURVE",
"195 565 CURVE SMOOTH",
"178 565 OFFCURVE",
"120 572 OFFCURVE",
"109 592 CURVE SMOOTH",
"98 612 OFFCURVE",
"108 690 OFFCURVE",
"108 696 CURVE"
);
},
{
closed = 1;
nodes = (
"77 483 OFFCURVE",
"195 463 OFFCURVE",
"213 450 CURVE",
"211 433 OFFCURVE",
"153 125 OFFCURVE",
"172 63 CURVE",
"187 63 OFFCURVE",
"210 70 OFFCURVE",
"226 75 CURVE",
"230 29 LINE",
"214 17 OFFCURVE",
"181 2 OFFCURVE",
"163 -1 CURVE",
"117 -2 OFFCURVE",
"76 16 OFFCURVE",
"54 32 CURVE SMOOTH",
"27 52 OFFCURVE",
"68 245 OFFCURVE",
"81 345 CURVE SMOOTH",
"86 384 OFFCURVE",
"82 416 OFFCURVE",
"45 428 CURVE",
"57 478 LINE"
);
}
);
width = 262;
}
);
leftKerningGroup = i;
rightKerningGroup = i;
unicode = 0069;
},
{
glyphname = j;
lastChange = "2015-11-08 23:59:17 +0000";
layers = (
{
background = {
paths = (
{
closed = 1;
nodes = (
"399 474 OFFCURVE",
"356 483 OFFCURVE",
"321 480 CURVE",
"262 439 OFFCURVE",
"224 359 OFFCURVE",
"198 299 CURVE",
"201 317 OFFCURVE",
"219 439 OFFCURVE",
"211 447 CURVE SMOOTH",
"199 459 OFFCURVE",
"63 484 OFFCURVE",
"52 479 CURVE",
"52 479 OFFCURVE",
"33 435 OFFCURVE",
"48 425 CURVE SMOOTH",
"63 418 OFFCURVE",
"86 405 OFFCURVE",
"85 354 CURVE SMOOTH",
"84 296 OFFCURVE",
"71 145 OFFCURVE",
"58 55 CURVE SMOOTH",
"40 -67 OFFCURVE",
"14 -195 OFFCURVE",
"21 -203 CURVE SMOOTH",
"33 -213 OFFCURVE",
"166 -262 OFFCURVE",
"179 -252 CURVE",
"179 -252 OFFCURVE",
"203 -207 OFFCURVE",
"188 -201 CURVE SMOOTH",
"170 -192 OFFCURVE",
"155 -134 OFFCURVE",
"154 -86 CURVE SMOOTH",
"153 -45 OFFCURVE",
"155 -21 OFFCURVE",
"159 28 CURVE",
"204 4 OFFCURVE",
"252 -6 OFFCURVE",
"302 -4 CURVE",
"474 46 OFFCURVE",
"533 304 OFFCURVE",
"425 441 CURVE SMOOTH"
);
},
{
closed = 1;
nodes = (
"399 474 OFFCURVE",
"356 483 OFFCURVE",
"321 480 CURVE",
"262 439 OFFCURVE",
"224 359 OFFCURVE",
"198 299 CURVE",
"201 317 OFFCURVE",
"219 439 OFFCURVE",
"211 447 CURVE SMOOTH",
"199 459 OFFCURVE",
"63 484 OFFCURVE",
"52 479 CURVE",
"52 479 OFFCURVE",
"33 435 OFFCURVE",
"48 425 CURVE SMOOTH",
"63 418 OFFCURVE",
"86 405 OFFCURVE",
"85 354 CURVE SMOOTH",
"84 296 OFFCURVE",
"71 145 OFFCURVE",
"58 55 CURVE SMOOTH",
"40 -67 OFFCURVE",
"14 -195 OFFCURVE",
"21 -203 CURVE SMOOTH",
"33 -213 OFFCURVE",
"166 -262 OFFCURVE",
"179 -252 CURVE",
"179 -252 OFFCURVE",
"203 -207 OFFCURVE",
"188 -201 CURVE SMOOTH",
"170 -192 OFFCURVE",
"155 -134 OFFCURVE",
"154 -86 CURVE SMOOTH",
"153 -45 OFFCURVE",
"155 -21 OFFCURVE",
"159 28 CURVE",
"204 4 OFFCURVE",
"252 -6 OFFCURVE",
"302 -4 CURVE",
"474 46 OFFCURVE",
"533 304 OFFCURVE",
"425 441 CURVE SMOOTH"
);
}
);
};
guideLines = (
{
alignment = center;
angle = -12;
position = "{236, 497}";
},
{
angle = -103;
position = "{25, 345}";
}
);
layerId = "71FD7A9F-05F5-4D76-8D4F-547475A05E4C";
name = "Regular Italic";
paths = (
{
closed = 1;
nodes = (
"219 565 OFFCURVE",
"231 643 OFFCURVE",
"230 668 CURVE SMOOTH",
"231 693 OFFCURVE",
"170 702 OFFCURVE",
"151 707 CURVE SMOOTH",
"134 713 OFFCURVE",
"111 711 OFFCURVE",
"113 699 CURVE",
"113 699 OFFCURVE",
"104 612 OFFCURVE",
"115 592 CURVE SMOOTH",
"127 572 OFFCURVE",
"185 565 OFFCURVE",
"202 565 CURVE SMOOTH"
);
},
{
closed = 1;
nodes = (
"175 468 OFFCURVE",
"91 481 OFFCURVE",
"60 478 CURVE",
"48 427 LINE",
"76 420 OFFCURVE",
"90 412 OFFCURVE",
"92 337 CURVE SMOOTH",
"92 301 OFFCURVE",
"85 227 OFFCURVE",
"79 180 CURVE SMOOTH",
"55 -9 OFFCURVE",
"28 -100 OFFCURVE",
"-4 -128 CURVE",
"-19 -128 OFFCURVE",
"-38 -123 OFFCURVE",
"-65 -108 CURVE",
"-82 -152 LINE",
"-58 -172 OFFCURVE",
"-26 -188 OFFCURVE",
"8 -194 CURVE",
"115 -168 OFFCURVE",
"156 -113 OFFCURVE",
"180 113 CURVE",
"193 247 OFFCURVE",
"217 427 OFFCURVE",
"215 451 CURVE"
);
}
);
width = 245;
}
);
unicode = 006A;
},
{
glyphname = k;
lastChange = "2015-11-09 17:56:10 +0000";
layers = (
{
background = {
paths = (
{
closed = 1;
nodes = (
"93 744 OFFCURVE",
"211 724 OFFCURVE",
"229 711 CURVE",
"227 694 OFFCURVE",
"169 386 OFFCURVE",
"188 324 CURVE",
"203 324 OFFCURVE",
"226 331 OFFCURVE",
"242 336 CURVE",
"246 290 LINE",
"230 278 OFFCURVE",
"197 263 OFFCURVE",
"179 260 CURVE",
"133 259 OFFCURVE",
"92 277 OFFCURVE",
"70 293 CURVE SMOOTH",
"43 313 OFFCURVE",
"84 506 OFFCURVE",
"97 606 CURVE SMOOTH",
"102 645 OFFCURVE",
"98 677 OFFCURVE",
"61 689 CURVE",
"73 739 LINE"
);
}
);
};
layerId = "71FD7A9F-05F5-4D76-8D4F-547475A05E4C";
name = "Regular Italic";
paths = (
{
closed = 1;
nodes = (
"458 74 LINE",
"444 69 OFFCURVE",
"428 65 OFFCURVE",
"413 63 CURVE",
"396 78 OFFCURVE",
"376 123 OFFCURVE",
"374 178 CURVE",
"464 218 OFFCURVE",
"475 429 OFFCURVE",
"463 465 CURVE",
"370 480 LINE",
"302 484 OFFCURVE",
"209 319 OFFCURVE",
"192 265 CURVE",
"213 446 OFFCURVE",
"256 688 OFFCURVE",
"241 699 CURVE SMOOTH",
"228 708 OFFCURVE",
"95 746 OFFCURVE",
"75 739 CURVE",
"64 692 LINE",
"103 674 OFFCURVE",
"124 619 OFFCURVE",
"91 353 CURVE SMOOTH",
"74 217 OFFCURVE",
"46 42 OFFCURVE",
"44 31 CURVE",
"44 19 OFFCURVE",
"127 -3 OFFCURVE",
"170 -3 CURVE SMOOTH",
"185 -3 OFFCURVE",
"187 28 OFFCURVE",
"180 117 CURVE",
"209 260 OFFCURVE",
"312 380 OFFCURVE",
"339 392 CURVE",
"348 380 OFFCURVE",
"348 234 OFFCURVE",
"308 199 CURVE",
"263 204 LINE",
"262 156 OFFCURVE",
"278 42 OFFCURVE",
"291 31 CURVE",
"311 19 OFFCURVE",
"346 -1 OFFCURVE",
"395 -1 CURVE",
"430 7 OFFCURVE",
"446 18 OFFCURVE",
"462 28 CURVE"
);
}
);
width = 525;
}
);
leftKerningGroup = l;
leftMetricsKey = h;
rightKerningGroup = i;
rightMetricsKey = a;
unicode = 006B;
},
{
glyphname = l;
lastChange = "2015-11-08 23:57:17 +0000";
layers = (
{
background = {
paths = (
{
closed = 1;
nodes = (
"74 483 OFFCURVE",
"192 463 OFFCURVE",
"210 450 CURVE",
"208 433 OFFCURVE",
"150 130 OFFCURVE",
"169 68 CURVE",
"184 68 OFFCURVE",
"204 75 OFFCURVE",
"220 80 CURVE",
"224 29 LINE",
"208 17 OFFCURVE",
"178 2 OFFCURVE",
"160 -1 CURVE",
"114 -2 OFFCURVE",
"73 16 OFFCURVE",
"51 32 CURVE SMOOTH",
"24 52 OFFCURVE",
"65 245 OFFCURVE",
"78 345 CURVE SMOOTH",
"83 384 OFFCURVE",
"79 416 OFFCURVE",
"42 428 CURVE",
"54 478 LINE"
);
}
);
};
guideLines = (
{
angle = -18;
position = "{100, 0}";
},
{
angle = -103;
position = "{37, 624}";
}
);
layerId = "71FD7A9F-05F5-4D76-8D4F-547475A05E4C";
name = "Regular Italic";
paths = (
{
closed = 1;
nodes = (
"177 2 OFFCURVE",
"203 11 OFFCURVE",
"229 29 CURVE",
"225 75 LINE",
"207 69 OFFCURVE",
"181 63 OFFCURVE",
"169 63 CURVE",
"163 156 OFFCURVE",
"187 299 OFFCURVE",
"203 431 CURVE SMOOTH",
"214 520 OFFCURVE",
"240 677 OFFCURVE",
"227 700 CURVE SMOOTH",
"218 713 OFFCURVE",
"80 742 OFFCURVE",
"68 735 CURVE",
"57 689 LINE",
"84 679 OFFCURVE",
"98 637 OFFCURVE",
"96 559 CURVE SMOOTH",
"94 493 OFFCURVE",
"88 442 OFFCURVE",
"73 326 CURVE SMOOTH",
"61 234 OFFCURVE",
"26 50 OFFCURVE",
"50 32 CURVE SMOOTH",
"58 26 OFFCURVE",
"109 -4 OFFCURVE",
"160 -1 CURVE"
);
}
);
width = 274;
}
);
leftKerningGroup = l;
leftMetricsKey = "=i-15";
rightKerningGroup = i;
rightMetricsKey = i;
unicode = 006C;
},
{
glyphname = m;
lastChange = "2015-11-09 00:05:44 +0000";
layers = (
{
background = {
paths = (
{
closed = 1;
nodes = (
"696 454 OFFCURVE",
"637 482 OFFCURVE",
"598 482 CURVE",
"554 370 LINE",
"524 265 OFFCURVE",
"484 75 OFFCURVE",
"503 44 CURVE SMOOTH",
"513 28 OFFCURVE",
"572 -2 OFFCURVE",
"626 -2 CURVE",
"658 7 OFFCURVE",
"677 20 OFFCURVE",
"689 28 CURVE",
"685 79 LINE",
"671 74 OFFCURVE",
"649 67 OFFCURVE",
"634 67 CURVE",
"614 132 OFFCURVE",
"670 354 OFFCURVE",
"690 427 CURVE"
);
}
);
};
guideLines = (
{
angle = -18;
position = "{-93, 0}";
},
{
position = "{1092, 369}";
}
);
layerId = "71FD7A9F-05F5-4D76-8D4F-547475A05E4C";
name = "Regular Italic";
paths = (
{
closed = 1;
nodes = (
"685 74 LINE",
"672 69 OFFCURVE",
"648 62 OFFCURVE",
"634 62 CURVE",
"611 114 OFFCURVE",
"664 351 OFFCURVE",
"682 428 CURVE SMOOTH",
"689 455 OFFCURVE",
"631 482 OFFCURVE",
"599 482 CURVE SMOOTH",
"501 482 OFFCURVE",
"432 306 OFFCURVE",
"417 265 CURVE",
"428 335 OFFCURVE",
"440 389 OFFCURVE",
"449 429 CURVE SMOOTH",
"455 458 OFFCURVE",
"404 482 OFFCURVE",
"366 482 CURVE SMOOTH",
"259 482 OFFCURVE",
"193 251 OFFCURVE",
"196 268 CURVE SMOOTH",
"197 277 OFFCURVE",
"219 432 OFFCURVE",
"209 443 CURVE SMOOTH",
"199 453 OFFCURVE",
"68 487 OFFCURVE",
"56 480 CURVE",
"56 480 OFFCURVE",
"37 438 OFFCURVE",
"53 430 CURVE SMOOTH",
"68 422 OFFCURVE",
"89 412 OFFCURVE",
"86 345 CURVE SMOOTH",
"78 211 OFFCURVE",
"52 45 OFFCURVE",
"51 33 CURVE SMOOTH",
"50 22 OFFCURVE",
"128 -3 OFFCURVE",
"174 -3 CURVE SMOOTH",
"189 -3 OFFCURVE",
"192 13 OFFCURVE",
"185 103 CURVE",
"213 259 OFFCURVE",
"296 368 OFFCURVE",
"322 378 CURVE",
"320 369 OFFCURVE",
"317 354 OFFCURVE",
"314 332 CURVE",
"288 199 OFFCURVE",
"273 45 OFFCURVE",
"272 33 CURVE SMOOTH",
"272 22 OFFCURVE",
"347 -3 OFFCURVE",
"392 -3 CURVE SMOOTH",
"408 -3 OFFCURVE",
"411 13 OFFCURVE",
"404 103 CURVE",
"432 259 OFFCURVE",
"530 368 OFFCURVE",
"554 378 CURVE",
"544 325 OFFCURVE",
"487 95 OFFCURVE",
"503 53 CURVE SMOOTH",
"515 27 OFFCURVE",
"568 -2 OFFCURVE",
"626 -2 CURVE",
"649 4 OFFCURVE",
"672 16 OFFCURVE",
"689 28 CURVE"
);
}
);
width = 721;
}
);
leftKerningGroup = i;
leftMetricsKey = i;
rightKerningGroup = i;
rightMetricsKey = i;
unicode = 006D;
},
{
glyphname = n;
lastChange = "2015-11-09 17:24:13 +0000";
layers = (
{
background = {
paths = (
{
closed = 1;
nodes = (
"481 454 OFFCURVE",
"422 482 OFFCURVE",
"383 482 CURVE",
"339 370 LINE",
"309 265 OFFCURVE",
"269 75 OFFCURVE",
"288 44 CURVE SMOOTH",
"298 28 OFFCURVE",
"357 -2 OFFCURVE",
"411 -2 CURVE",
"443 7 OFFCURVE",
"462 20 OFFCURVE",
"474 28 CURVE",
"470 79 LINE",
"456 74 OFFCURVE",
"434 67 OFFCURVE",
"419 67 CURVE",
"399 132 OFFCURVE",
"455 354 OFFCURVE",
"475 427 CURVE"
);
}
);
};
guideLines = (
{
angle = -12;
position = "{360, 29}";
},
{
position = "{885, 369}";
}
);
layerId = "71FD7A9F-05F5-4D76-8D4F-547475A05E4C";
name = "Regular Italic";
paths = (
{
closed = 1;
nodes = (
"470 70 LINE",
"456 65 OFFCURVE",
"436 59 OFFCURVE",
"419 59 CURVE",
"395 113 OFFCURVE",
"451 352 OFFCURVE",
"472 428 CURVE SMOOTH",
"479 455 OFFCURVE",
"421 482 OFFCURVE",
"382 482 CURVE SMOOTH",
"265 482 OFFCURVE",
"192 243 OFFCURVE",
"196 261 CURVE SMOOTH",
"197 270 OFFCURVE",
"222 433 OFFCURVE",
"212 444 CURVE SMOOTH",
"201 455 OFFCURVE",
"70 487 OFFCURVE",
"56 480 CURVE",
"46 435 LINE",
"62 427 OFFCURVE",
"92 412 OFFCURVE",
"88 345 CURVE SMOOTH",
"79 210 OFFCURVE",
"53 45 OFFCURVE",
"51 34 CURVE SMOOTH",
"51 22 OFFCURVE",
"132 -3 OFFCURVE",
"175 -3 CURVE SMOOTH",
"190 -3 OFFCURVE",
"193 14 OFFCURVE",
"186 103 CURVE",
"214 255 OFFCURVE",
"313 357 OFFCURVE",
"340 371 CURVE",
"323 317 OFFCURVE",
"266 79 OFFCURVE",
"291 42 CURVE SMOOTH",
"297 33 OFFCURVE",
"346 -2 OFFCURVE",
"411 -2 CURVE",
"443 7 OFFCURVE",
"460 16 OFFCURVE",
"474 25 CURVE"
);
}
);
width = 506;
}
);
leftKerningGroup = i;
leftMetricsKey = i;
rightKerningGroup = i;
rightMetricsKey = i;
unicode = 006E;
},
{
glyphname = o;
lastChange = "2015-11-09 00:00:33 +0000";
layers = (
{
layerId = "71FD7A9F-05F5-4D76-8D4F-547475A05E4C";
name = "Regular Italic";
paths = (
{
closed = 1;
nodes = (
"368 466 OFFCURVE",
"315 497 OFFCURVE",
"205 480 CURVE",
"22 433 OFFCURVE",
"-22 180 OFFCURVE",
"75 60 CURVE SMOOTH",
"121 3 OFFCURVE",
"198 -21 OFFCURVE",
"282 7 CURVE SMOOTH",
"473 70 OFFCURVE",
"482 323 OFFCURVE",
"398 428 CURVE SMOOTH"
);
},
{
closed = 1;
nodes = (
"216 78 OFFCURVE",
"189 97 OFFCURVE",
"169 141 CURVE SMOOTH",
"128 231 OFFCURVE",
"141 361 OFFCURVE",
"221 409 CURVE",
"254 409 OFFCURVE",
"282 395 OFFCURVE",
"304 344 CURVE SMOOTH",
"341 259 OFFCURVE",
"339 129 OFFCURVE",
"255 78 CURVE"
);
}
);
width = 473;
}
);
leftKerningGroup = o;
rightKerningGroup = o;
unicode = 006F;
},
{
glyphname = p;
lastChange = "2015-11-09 17:25:26 +0000";
layers = (
{
background = {
paths = (
{
closed = 1;
nodes = (
"48 478 OFFCURVE",
"20 443 OFFCURVE",
"4 395 CURVE",
"0 383 OFFCURVE",
"14 381 OFFCURVE",
"30 375 CURVE SMOOTH",
"36 373 OFFCURVE",
"39 376 OFFCURVE",
"42 383 CURVE SMOOTH",
"53 406 OFFCURVE",
"61 416 OFFCURVE",
"69 416 CURVE SMOOTH",
"77 416 OFFCURVE",
"92 399 OFFCURVE",
"92 353 CURVE SMOOTH",
"92 297 OFFCURVE",
"74 180 OFFCURVE",
"55 48 CURVE SMOOTH",
"42 -41 OFFCURVE",
"7 -195 OFFCURVE",
"20 -218 CURVE SMOOTH",
"29 -231 OFFCURVE",
"179 -265 OFFCURVE",
"192 -258 CURVE",
"192 -258 OFFCURVE",
"215 -222 OFFCURVE",
"197 -214 CURVE SMOOTH",
"182 -206 OFFCURVE",
"163 -183 OFFCURVE",
"157 -106 CURVE SMOOTH",
"152 -40 OFFCURVE",
"160 38 OFFCURVE",
"179 154 CURVE SMOOTH",
"196 245 OFFCURVE",
"228 422 OFFCURVE",
"205 440 CURVE SMOOTH",
"197 446 OFFCURVE",
"142 492 OFFCURVE",
"87 484 CURVE SMOOTH"
);
},
{
closed = 1;
nodes = (
"210 403 OFFCURVE",
"163 203 OFFCURVE",
"155 168 CURVE",
"155 168 OFFCURVE",
"163 176 OFFCURVE",
"182 169 CURVE",
"191 232 OFFCURVE",
"285 364 OFFCURVE",
"301 371 CURVE",
"308 371 OFFCURVE",
"318 365 OFFCURVE",
"329 342 CURVE SMOOTH",
"366 264 OFFCURVE",
"363 112 OFFCURVE",
"284 63 CURVE",
"284 63 LINE SMOOTH",
"284 63 OFFCURVE",
"211 69 OFFCURVE",
"171 153 CURVE",
"171 153 OFFCURVE",
"106 120 OFFCURVE",
"106 64 CURVE",
"137 23 OFFCURVE",
"221 -10 OFFCURVE",
"304 -3 CURVE",
"478 47 OFFCURVE",
"534 309 OFFCURVE",
"427 439 CURVE SMOOTH",
"394 479 OFFCURVE",
"365 484 OFFCURVE",
"327 480 CURVE"
);
}
);
};
guideLines = (
{
angle = -18;
position = "{766, -224}";
},
{
angle = 78;
position = "{39, 445}";
}
);
layerId = "71FD7A9F-05F5-4D76-8D4F-547475A05E4C";
name = "Regular Italic";
paths = (
{
closed = 1;
nodes = (
"400 474 OFFCURVE",
"357 483 OFFCURVE",
"322 480 CURVE",
"263 439 OFFCURVE",
"225 359 OFFCURVE",
"199 299 CURVE",
"202 317 OFFCURVE",
"220 439 OFFCURVE",
"212 447 CURVE SMOOTH",
"200 459 OFFCURVE",
"68 484 OFFCURVE",
"57 479 CURVE",
"46 435 LINE",
"61 428 OFFCURVE",
"87 405 OFFCURVE",
"86 354 CURVE SMOOTH",
"85 296 OFFCURVE",
"72 145 OFFCURVE",
"59 55 CURVE SMOOTH",
"41 -67 OFFCURVE",
"15 -195 OFFCURVE",
"22 -203 CURVE SMOOTH",
"34 -213 OFFCURVE",
"170 -262 OFFCURVE",
"183 -252 CURVE",
"195 -201 LINE",
"177 -192 OFFCURVE",
"156 -134 OFFCURVE",
"155 -86 CURVE SMOOTH",
"154 -45 OFFCURVE",
"156 -21 OFFCURVE",
"160 28 CURVE",
"205 4 OFFCURVE",
"253 -6 OFFCURVE",
"303 -4 CURVE",
"475 46 OFFCURVE",
"534 304 OFFCURVE",
"426 441 CURVE SMOOTH"
);
},
{
closed = 1;
nodes = (
"284 63 LINE SMOOTH",
"284 63 OFFCURVE",
"226 68 OFFCURVE",
"177 138 CURVE",
"182 168 LINE",
"190 226 OFFCURVE",
"285 366 OFFCURVE",
"303 372 CURVE",
"314 367 OFFCURVE",
"324 354 OFFCURVE",
"333 332 CURVE SMOOTH",
"366 250 OFFCURVE",
"362 113 OFFCURVE",
"284 63 CURVE"
);
}
);
width = 508;
}
);
leftKerningGroup = i;
leftMetricsKey = i;
rightKerningGroup = o;
rightMetricsKey = o;
unicode = 0070;
},
{
glyphname = q;
lastChange = "2015-11-09 00:01:01 +0000";
layers = (
{
background = {
paths = (
{
closed = 1;
nodes = (
"406 479 OFFCURVE",
"372 484 OFFCURVE",
"337 481 CURVE",
"278 440 OFFCURVE",
"237 359 OFFCURVE",
"211 299 CURVE",
"214 317 OFFCURVE",
"232 439 OFFCURVE",
"224 447 CURVE SMOOTH",
"212 459 OFFCURVE",
"76 484 OFFCURVE",
"65 479 CURVE",
"65 479 OFFCURVE",
"46 435 OFFCURVE",
"61 425 CURVE SMOOTH",
"76 418 OFFCURVE",
"99 405 OFFCURVE",
"98 354 CURVE SMOOTH",
"97 296 OFFCURVE",
"83 145 OFFCURVE",
"70 55 CURVE SMOOTH",
"52 -73 OFFCURVE",
"25 -204 OFFCURVE",
"32 -212 CURVE SMOOTH",
"44 -222 OFFCURVE",
"182 -308 OFFCURVE",
"195 -298 CURVE",
"195 -298 OFFCURVE",
"219 -253 OFFCURVE",
"204 -247 CURVE SMOOTH",
"186 -238 OFFCURVE",
"172 -178 OFFCURVE",
"170 -130 CURVE SMOOTH",
"168 -89 OFFCURVE",
"169 -44 OFFCURVE",
"173 28 CURVE",
"218 4 OFFCURVE",
"265 -6 OFFCURVE",
"315 -4 CURVE",
"487 46 OFFCURVE",
"547 306 OFFCURVE",
"438 440 CURVE SMOOTH"
);
},
{
closed = 1;
nodes = (
"296 63 LINE SMOOTH",
"296 63 OFFCURVE",
"238 68 OFFCURVE",
"189 138 CURVE",
"194 168 LINE",
"202 226 OFFCURVE",
"297 366 OFFCURVE",
"315 372 CURVE",
"326 367 OFFCURVE",
"336 354 OFFCURVE",
"345 332 CURVE SMOOTH",
"378 250 OFFCURVE",
"374 113 OFFCURVE",
"296 63 CURVE"
);
}
);
};
layerId = "71FD7A9F-05F5-4D76-8D4F-547475A05E4C";
name = "Regular Italic";
paths = (
{
closed = 1;
nodes = (
"390 -188 OFFCURVE",
"375 -133 OFFCURVE",
"377 -85 CURVE SMOOTH",
"380 -22 OFFCURVE",
"404 291 OFFCURVE",
"461 457 CURVE",
"461 463 OFFCURVE",
"436 474 OFFCURVE",
"425 476 CURVE SMOOTH",
"408 482 OFFCURVE",
"401 474 OFFCURVE",
"393 454 CURVE SMOOTH",
"389 447 OFFCURVE",
"387 444 OFFCURVE",
"383 438 CURVE",
"352 474 OFFCURVE",
"280 488 OFFCURVE",
"205 480 CURVE",
"27 432 OFFCURVE",
"-30 171 OFFCURVE",
"76 34 CURVE SMOOTH",
"109 -3 OFFCURVE",
"145 -10 OFFCURVE",
"181 -3 CURVE",
"227 28 OFFCURVE",
"265 78 OFFCURVE",
"291 133 CURVE",
"269 -20 OFFCURVE",
"235 -192 OFFCURVE",
"242 -199 CURVE SMOOTH",
"255 -211 OFFCURVE",
"384 -258 OFFCURVE",
"396 -252 CURVE",
"396 -252 OFFCURVE",
"424 -209 OFFCURVE",
"403 -196 CURVE SMOOTH"
);
},
{
closed = 1;
nodes = (
"198 100 OFFCURVE",
"188 106 OFFCURVE",
"176 133 CURVE SMOOTH",
"141 210 OFFCURVE",
"145 365 OFFCURVE",
"224 414 CURVE",
"224 414 LINE",
"224 414 OFFCURVE",
"270 410 OFFCURVE",
"321 347 CURVE",
"321 320 OFFCURVE",
"319 291 OFFCURVE",
"315 265 CURVE",
"289 197 OFFCURVE",
"220 106 OFFCURVE",
"205 100 CURVE"
);
}
);
width = 458;
}
);
leftMetricsKey = o;
rightMetricsKey = "=i-10";
unicode = 0071;
},
{
glyphname = r;
lastChange = "2015-11-08 17:21:58 +0000";
layers = (
{
background = {
paths = (
{
closed = 1;
nodes = (
"83 489 OFFCURVE",
"207 456 OFFCURVE",
"218 445 CURVE SMOOTH",
"233 428 OFFCURVE",
"155 126 OFFCURVE",
"193 68 CURVE SMOOTH",
"198 60 OFFCURVE",
"214 60 OFFCURVE",
"231 97 CURVE SMOOTH",
"236 109 OFFCURVE",
"242 107 OFFCURVE",
"264 98 CURVE SMOOTH",
"275 93 OFFCURVE",
"265 78 OFFCURVE",
"257 58 CURVE SMOOTH",
"247 35 OFFCURVE",
"216 -4 OFFCURVE",
"182 -5 CURVE SMOOTH",
"142 -6 OFFCURVE",
"93 18 OFFCURVE",
"66 37 CURVE SMOOTH",
"38 56 OFFCURVE",
"82 246 OFFCURVE",
"95 346 CURVE SMOOTH",
"100 385 OFFCURVE",
"101 423 OFFCURVE",
"64 435 CURVE SMOOTH",
"47 440 OFFCURVE",
"69 481 OFFCURVE",
"69 481 CURVE"
);
}
);
};
guideLines = (
{
position = "{-1194, 367}";
}
);
layerId = "71FD7A9F-05F5-4D76-8D4F-547475A05E4C";
name = "Regular Italic";
paths = (
{
closed = 1;
nodes = (
"42 439 OFFCURVE",
"61 481 OFFCURVE",
"61 481 CURVE",
"64 487 OFFCURVE",
"212 459 OFFCURVE",
"222 442 CURVE SMOOTH",
"231 427 OFFCURVE",
"215 315 OFFCURVE",
"207 259 CURVE",
"217 304 OFFCURVE",
"251 378 OFFCURVE",
"313 452 CURVE",
"320 458 OFFCURVE",
"358 483 OFFCURVE",
"386 482 CURVE SMOOTH",
"419 481 OFFCURVE",
"448 465 OFFCURVE",
"457 440 CURVE",
"456 428 OFFCURVE",
"416 329 OFFCURVE",
"394 301 CURVE",
"379 328 OFFCURVE",
"354 350 OFFCURVE",
"323 356 CURVE",
"294 330 OFFCURVE",
"239 266 OFFCURVE",
"199 113 CURVE",
"204 44 OFFCURVE",
"203 -3 OFFCURVE",
"187 -4 CURVE SMOOTH",
"149 -6 OFFCURVE",
"57 17 OFFCURVE",
"60 37 CURVE SMOOTH",
"66 79 OFFCURVE",
"96 313 OFFCURVE",
"97 344 CURVE SMOOTH",
"99 395 OFFCURVE",
"88 411 OFFCURVE",
"57 430 CURVE SMOOTH"
);
}
);
width = 446;
}
);
leftKerningGroup = i;
leftMetricsKey = i;
rightKerningGroup = r;
rightMetricsKey = c;
unicode = 0072;
},
{
glyphname = t;
lastChange = "2015-11-09 00:13:35 +0000";
layers = (
{
background = {
paths = (
{
closed = 1;
nodes = (
"233 461 OFFCURVE",
"167 479 OFFCURVE",
"119 479 CURVE",
"98 471 OFFCURVE",
"112 317 OFFCURVE",
"114 309 CURVE",
"104 270 OFFCURVE",
"83 159 OFFCURVE",
"80 112 CURVE SMOOTH",
"74 27 OFFCURVE",
"111 4 OFFCURVE",
"149 -2 CURVE SMOOTH",
"188 -8 OFFCURVE",
"247 16 OFFCURVE",
"262 30 CURVE",
"264 42 OFFCURVE",
"261 66 OFFCURVE",
"259 80 CURVE SMOOTH",
"259 85 OFFCURVE",
"254 87 OFFCURVE",
"250 84 CURVE SMOOTH",
"232 72 OFFCURVE",
"207 64 OFFCURVE",
"201 79 CURVE",
"175 154 OFFCURVE",
"230 379 OFFCURVE",
"247 444 CURVE"
);
}
);
};
guideLines = (
{
angle = -103;
position = "{30, 345}";
}
);
layerId = "71FD7A9F-05F5-4D76-8D4F-547475A05E4C";
name = "Regular Italic";
paths = (
{
closed = 1;
nodes = (
"253 448 OFFCURVE",
"216 447 OFFCURVE",
"199 447 CURVE",
"203 478 OFFCURVE",
"209 517 OFFCURVE",
"213 548 CURVE",
"112 556 LINE",
"105 501 LINE",
"98 450 OFFCURVE",
"89 441 OFFCURVE",
"61 441 CURVE SMOOTH",
"44 441 LINE",
"37 385 LINE",
"40 385 OFFCURVE",
"62 385 OFFCURVE",
"81 385 CURVE",
"74 328 OFFCURVE",
"42 130 OFFCURVE",
"46 76 CURVE SMOOTH",
"49 36 OFFCURVE",
"94 -3 OFFCURVE",
"161 -3 CURVE",
"201 4 OFFCURVE",
"224 10 OFFCURVE",
"272 32 CURVE",
"266 86 LINE",
"237 74 OFFCURVE",
"208 67 OFFCURVE",
"179 68 CURVE",
"147 104 OFFCURVE",
"178 270 OFFCURVE",
"192 382 CURVE",
"233 382 OFFCURVE",
"263 379 OFFCURVE",
"282 379 CURVE SMOOTH",
"293 379 OFFCURVE",
"295 383 OFFCURVE",
"302 450 CURVE"
);
}
);
width = 315;
}
);
leftKerningGroup = i;
leftMetricsKey = i;
rightMetricsKey = i;
unicode = 0074;
},
{
glyphname = u;
lastChange = "2015-11-09 17:24:47 +0000";
layers = (
{
background = {
paths = (
{
closed = 1;
nodes = (
"45 372 OFFCURVE",
"47 369 OFFCURVE",
"52 381 CURVE SMOOTH",
"71 419 OFFCURVE",
"85 419 OFFCURVE",
"90 413 CURVE SMOOTH",
"90 411 OFFCURVE",
"92 409 OFFCURVE",
"93 407 CURVE",
"121 353 OFFCURVE",
"64 127 OFFCURVE",
"43 51 CURVE SMOOTH",
"37 24 OFFCURVE",
"96 -4 OFFCURVE",
"135 -4 CURVE SMOOTH",
"252 -4 OFFCURVE",
"327 250 OFFCURVE",
"323 232 CURVE SMOOTH",
"322 223 OFFCURVE",
"295 45 OFFCURVE",
"305 34 CURVE SMOOTH",
"316 23 OFFCURVE",
"447 -9 OFFCURVE",
"461 -2 CURVE",
"461 -2 OFFCURVE",
"481 41 OFFCURVE",
"464 49 CURVE SMOOTH",
"448 57 OFFCURVE",
"425 66 OFFCURVE",
"429 133 CURVE SMOOTH",
"438 268 OFFCURVE",
"464 433 OFFCURVE",
"466 444 CURVE SMOOTH",
"466 456 OFFCURVE",
"385 481 OFFCURVE",
"342 481 CURVE SMOOTH",
"327 481 OFFCURVE",
"324 464 OFFCURVE",
"331 375 CURVE",
"302 218 OFFCURVE",
"206 121 OFFCURVE",
"179 107 CURVE",
"192 161 OFFCURVE",
"248 383 OFFCURVE",
"230 425 CURVE SMOOTH",
"219 451 OFFCURVE",
"154 489 OFFCURVE",
"95 480 CURVE SMOOTH",
"64 475 OFFCURVE",
"40 437 OFFCURVE",
"30 416 CURVE SMOOTH",
"22 402 OFFCURVE",
"12 386 OFFCURVE",
"23 381 CURVE SMOOTH"
);
}
);
};
layerId = "71FD7A9F-05F5-4D76-8D4F-547475A05E4C";
name = "Regular Italic";
paths = (
{
closed = 1;
nodes = (
"172 154 OFFCURVE",
"256 409 OFFCURVE",
"216 443 CURVE",
"206 454 OFFCURVE",
"84 485 OFFCURVE",
"57 480 CURVE",
"47 426 LINE",
"63 418 OFFCURVE",
"105 409 OFFCURVE",
"99 345 CURVE SMOOTH",
"83 169 OFFCURVE",
"37 74 OFFCURVE",
"61 32 CURVE",
"85 15 OFFCURVE",
"132 -5 OFFCURVE",
"155 -5 CURVE SMOOTH",
"231 -5 OFFCURVE",
"317 172 OFFCURVE",
"344 287 CURVE SMOOTH",
"346 297 OFFCURVE",
"345 430 OFFCURVE",
"333 375 CURVE SMOOTH",
"299 218 OFFCURVE",
"185 89 OFFCURVE",
"182 104 CURVE"
);
},
{
closed = 1;
nodes = (
"450 7 OFFCURVE",
"469 20 OFFCURVE",
"481 28 CURVE",
"477 74 LINE",
"463 69 OFFCURVE",
"441 62 OFFCURVE",
"426 62 CURVE",
"410 104 OFFCURVE",
"453 379 OFFCURVE",
"470 444 CURVE",
"456 461 OFFCURVE",
"390 479 OFFCURVE",
"342 479 CURVE",
"321 471 OFFCURVE",
"328 288 OFFCURVE",
"330 280 CURVE",
"328 206 OFFCURVE",
"282 68 OFFCURVE",
"302 36 CURVE SMOOTH",
"312 20 OFFCURVE",
"364 -2 OFFCURVE",
"418 -2 CURVE"
);
}
);
width = 513;
}
);
leftKerningGroup = i;
leftMetricsKey = i;
rightKerningGroup = i;
rightMetricsKey = i;
unicode = 0075;
},
{
glyphname = v;
lastChange = "2015-11-08 17:41:25 +0000";
layers = (
{
background = {
paths = (
{
closed = 1;
nodes = (
"614 458 OFFCURVE",
"494 479 OFFCURVE",
"484 477 CURVE",
"532 340 OFFCURVE",
"529 108 OFFCURVE",
"452 69 CURVE",
"406 102 OFFCURVE",
"389 194 OFFCURVE",
"395 265 CURVE",
"408 315 OFFCURVE",
"431 446 OFFCURVE",
"425 453 CURVE",
"418 462 OFFCURVE",
"334 476 OFFCURVE",
"302 480 CURVE",
"285 410 OFFCURVE",
"281 294 OFFCURVE",
"295 237 CURVE",
"282 141 OFFCURVE",
"256 87 OFFCURVE",
"231 69 CURVE",
"133 136 OFFCURVE",
"184 382 OFFCURVE",
"221 439 CURVE",
"190 458 OFFCURVE",
"91 482 OFFCURVE",
"64 480 CURVE",
"64 480 OFFCURVE",
"33 423 OFFCURVE",
"36 383 CURVE SMOOTH",
"36 379 OFFCURVE",
"41 377 OFFCURVE",
"45 379 CURVE SMOOTH",
"77 392 OFFCURVE",
"116 395 OFFCURVE",
"132 396 CURVE",
"66 335 OFFCURVE",
"-32 73 OFFCURVE",
"157 5 CURVE SMOOTH",
"180 -3 OFFCURVE",
"223 -6 OFFCURVE",
"229 -5 CURVE",
"264 19 OFFCURVE",
"303 55 OFFCURVE",
"329 99 CURVE",
"347 57 OFFCURVE",
"370 26 OFFCURVE",
"400 10 CURVE SMOOTH",
"419 0 OFFCURVE",
"442 -5 OFFCURVE",
"462 -4 CURVE",
"627 48 OFFCURVE",
"672 315 OFFCURVE",
"618 448 CURVE SMOOTH"
);
}
);
};
layerId = "71FD7A9F-05F5-4D76-8D4F-547475A05E4C";
name = "Regular Italic";
paths = (
{
closed = 1;
nodes = (
"137 137 OFFCURVE",
"183 382 OFFCURVE",
"221 439 CURVE",
"184 461 OFFCURVE",
"91 482 OFFCURVE",
"64 480 CURVE",
"64 480 OFFCURVE",
"34 429 OFFCURVE",
"36 384 CURVE SMOOTH",
"36 379 OFFCURVE",
"41 377 OFFCURVE",
"46 379 CURVE SMOOTH",
"78 392 OFFCURVE",
"117 395 OFFCURVE",
"133 396 CURVE",
"78 354 OFFCURVE",
"-40 80 OFFCURVE",
"154 6 CURVE SMOOTH",
"175 -2 OFFCURVE",
"205 -5 OFFCURVE",
"239 -5 CURVE",
"364 24 OFFCURVE",
"477 222 OFFCURVE",
"407 448 CURVE SMOOTH",
"404 458 OFFCURVE",
"303 477 OFFCURVE",
"279 475 CURVE",
"328 360 OFFCURVE",
"325 127 OFFCURVE",
"226 70 CURVE"
);
}
);
width = 453;
}
);
leftKerningGroup = v;
leftMetricsKey = "=i-10";
rightKerningGroup = o;
rightMetricsKey = o;
unicode = 0076;
},
{
glyphname = w;
lastChange = "2015-11-08 17:40:16 +0000";
layers = (
{
background = {
paths = (
{
closed = 1;
nodes = (
"679 106 OFFCURVE",
"678 109 OFFCURVE",
"673 98 CURVE SMOOTH",
"654 60 OFFCURVE",
"641 59 OFFCURVE",
"637 66 CURVE SMOOTH",
"635 68 OFFCURVE",
"634 70 OFFCURVE",
"633 73 CURVE",
"606 125 OFFCURVE",
"663 351 OFFCURVE",
"681 428 CURVE SMOOTH",
"688 455 OFFCURVE",
"631 482 OFFCURVE",
"599 482 CURVE SMOOTH",
"501 482 OFFCURVE",
"432 306 OFFCURVE",
"417 265 CURVE",
"428 335 OFFCURVE",
"440 389 OFFCURVE",
"449 429 CURVE SMOOTH",
"455 458 OFFCURVE",
"404 482 OFFCURVE",
"366 482 CURVE SMOOTH",
"259 482 OFFCURVE",
"193 251 OFFCURVE",
"196 268 CURVE SMOOTH",
"197 277 OFFCURVE",
"219 432 OFFCURVE",
"209 443 CURVE SMOOTH",
"199 453 OFFCURVE",
"68 487 OFFCURVE",
"56 480 CURVE",
"56 480 OFFCURVE",
"37 438 OFFCURVE",
"53 430 CURVE SMOOTH",
"68 422 OFFCURVE",
"89 412 OFFCURVE",
"86 345 CURVE SMOOTH",
"78 211 OFFCURVE",
"52 45 OFFCURVE",
"51 33 CURVE SMOOTH",
"50 22 OFFCURVE",
"128 -3 OFFCURVE",
"174 -3 CURVE SMOOTH",
"189 -3 OFFCURVE",
"192 13 OFFCURVE",
"185 103 CURVE",
"213 259 OFFCURVE",
"296 368 OFFCURVE",
"322 378 CURVE",
"320 369 OFFCURVE",
"317 354 OFFCURVE",
"314 332 CURVE",
"288 199 OFFCURVE",
"273 45 OFFCURVE",
"272 33 CURVE SMOOTH",
"272 22 OFFCURVE",
"347 -3 OFFCURVE",
"392 -3 CURVE SMOOTH",
"408 -3 OFFCURVE",
"411 13 OFFCURVE",
"404 103 CURVE",
"432 259 OFFCURVE",
"530 368 OFFCURVE",
"554 378 CURVE",
"544 325 OFFCURVE",
"487 95 OFFCURVE",
"503 53 CURVE SMOOTH",
"515 27 OFFCURVE",
"574 -11 OFFCURVE",
"630 -2 CURVE SMOOTH",
"662 3 OFFCURVE",
"684 40 OFFCURVE",
"694 63 CURVE SMOOTH",
"700 77 OFFCURVE",
"711 93 OFFCURVE",
"701 97 CURVE SMOOTH"
);
}
);
};
guideLines = (
{
angle = -12;
position = "{718, 437}";
},
{
angle = -96;
position = "{369, 480}";
}
);
layerId = "71FD7A9F-05F5-4D76-8D4F-547475A05E4C";
name = "Regular Italic";
paths = (
{
closed = 1;
nodes = (
"616 458 OFFCURVE",
"496 479 OFFCURVE",
"486 477 CURVE",
"534 340 OFFCURVE",
"531 108 OFFCURVE",
"454 69 CURVE",
"408 102 OFFCURVE",
"391 194 OFFCURVE",
"397 265 CURVE",
"410 315 OFFCURVE",
"433 446 OFFCURVE",
"427 453 CURVE",
"420 462 OFFCURVE",
"336 476 OFFCURVE",
"304 480 CURVE",
"287 410 OFFCURVE",
"283 294 OFFCURVE",
"297 237 CURVE",
"284 141 OFFCURVE",
"258 87 OFFCURVE",
"233 69 CURVE",
"135 136 OFFCURVE",
"186 382 OFFCURVE",
"223 439 CURVE",
"192 458 OFFCURVE",
"93 482 OFFCURVE",
"66 480 CURVE",
"66 480 OFFCURVE",
"35 423 OFFCURVE",
"38 383 CURVE SMOOTH",
"38 379 OFFCURVE",
"43 377 OFFCURVE",
"47 379 CURVE SMOOTH",
"79 392 OFFCURVE",
"118 395 OFFCURVE",
"134 396 CURVE",
"68 335 OFFCURVE",
"-30 73 OFFCURVE",
"159 5 CURVE SMOOTH",
"182 -3 OFFCURVE",
"225 -6 OFFCURVE",
"231 -5 CURVE",
"266 19 OFFCURVE",
"305 55 OFFCURVE",
"331 99 CURVE",
"349 57 OFFCURVE",
"372 26 OFFCURVE",
"402 10 CURVE SMOOTH",
"421 0 OFFCURVE",
"444 -5 OFFCURVE",
"464 -4 CURVE",
"629 48 OFFCURVE",
"674 315 OFFCURVE",
"620 448 CURVE SMOOTH"
);
}
);
width = 662;
}
);
leftKerningGroup = v;
leftMetricsKey = v;
rightKerningGroup = o;
rightMetricsKey = o;
unicode = 0077;
},
{
glyphname = y;
lastChange = "2015-11-08 18:49:15 +0000";
layers = (
{
background = {
paths = (
{
closed = 1;
nodes = (
"144 137 OFFCURVE",
"190 382 OFFCURVE",
"228 439 CURVE",
"191 461 OFFCURVE",
"98 482 OFFCURVE",
"71 480 CURVE",
"71 480 OFFCURVE",
"41 429 OFFCURVE",
"43 384 CURVE SMOOTH",
"43 379 OFFCURVE",
"48 377 OFFCURVE",
"53 379 CURVE SMOOTH",
"85 392 OFFCURVE",
"124 395 OFFCURVE",
"140 396 CURVE",
"85 354 OFFCURVE",
"-33 80 OFFCURVE",
"161 6 CURVE SMOOTH",
"182 -2 OFFCURVE",
"212 -5 OFFCURVE",
"246 -5 CURVE",
"371 24 OFFCURVE",
"484 222 OFFCURVE",
"414 448 CURVE SMOOTH",
"411 458 OFFCURVE",
"310 477 OFFCURVE",
"286 475 CURVE",
"335 360 OFFCURVE",
"332 127 OFFCURVE",
"233 70 CURVE"
);
}
);
};
layerId = "71FD7A9F-05F5-4D76-8D4F-547475A05E4C";
name = "Regular Italic";
paths = (
{
closed = 1;
nodes = (
"-50 -200 OFFCURVE",
"62 -272 OFFCURVE",
"150 -243 CURVE SMOOTH",
"370 -171 OFFCURVE",
"494 135 OFFCURVE",
"431 452 CURVE",
"428 459 OFFCURVE",
"328 480 OFFCURVE",
"296 476 CURVE",
"327 406 OFFCURVE",
"337 328 OFFCURVE",
"355 254 CURVE",
"355 127 OFFCURVE",
"283 -4 OFFCURVE",
"228 -59 CURVE SMOOTH",
"140 -147 OFFCURVE",
"52 -187 OFFCURVE",
"-23 -114 CURVE",
"-57 -133 LINE"
);
},
{
closed = 1;
nodes = (
"44 94 OFFCURVE",
"99 1 OFFCURVE",
"177 0 CURVE SMOOTH",
"253 -1 OFFCURVE",
"366 214 OFFCURVE",
"361 330 CURVE",
"323 393 LINE",
"323 291 OFFCURVE",
"265 131 OFFCURVE",
"206 103 CURVE",
"149 217 OFFCURVE",
"207 409 OFFCURVE",
"228 439 CURVE",
"196 460 OFFCURVE",
"98 485 OFFCURVE",
"71 480 CURVE",
"71 480 OFFCURVE",
"30 391 OFFCURVE",
"47 379 CURVE SMOOTH",
"52 376 OFFCURVE",
"79 393 OFFCURVE",
"141 396 CURVE",
"105 358 OFFCURVE",
"67 291 OFFCURVE",
"55 190 CURVE SMOOTH"
);
}
);
width = 480;
}
);
leftMetricsKey = u;
rightMetricsKey = v;
unicode = 0079;
},
{
glyphname = n.001;
lastChange = "2015-11-09 00:10:34 +0000";
layers = (
{
background = {
paths = (
{
closed = 1;
nodes = (
"481 454 OFFCURVE",
"422 482 OFFCURVE",
"383 482 CURVE",
"339 370 LINE",
"309 265 OFFCURVE",
"269 75 OFFCURVE",
"288 44 CURVE SMOOTH",
"298 28 OFFCURVE",
"357 -2 OFFCURVE",
"411 -2 CURVE",
"443 7 OFFCURVE",
"462 20 OFFCURVE",
"474 28 CURVE",
"470 79 LINE",
"456 74 OFFCURVE",
"434 67 OFFCURVE",
"419 67 CURVE",
"399 132 OFFCURVE",
"455 354 OFFCURVE",
"475 427 CURVE"
);
}
);
};
guideLines = (
{
angle = -12;
position = "{360, 29}";
},
{
position = "{885, 369}";
}
);
layerId = "71FD7A9F-05F5-4D76-8D4F-547475A05E4C";
name = "Regular Italic";
paths = (
{
closed = 1;
nodes = (
"470 74 LINE",
"456 69 OFFCURVE",
"436 62 OFFCURVE",
"419 62 CURVE",
"395 116 OFFCURVE",
"456 363 OFFCURVE",
"476 439 CURVE",
"382 482 LINE",
"265 482 OFFCURVE",
"192 243 OFFCURVE",
"196 261 CURVE SMOOTH",
"197 270 OFFCURVE",
"222 433 OFFCURVE",
"212 444 CURVE SMOOTH",
"201 455 OFFCURVE",
"70 487 OFFCURVE",
"56 480 CURVE",
"56 480 OFFCURVE",
"36 437 OFFCURVE",
"53 429 CURVE SMOOTH",
"69 421 OFFCURVE",
"92 412 OFFCURVE",
"88 345 CURVE SMOOTH",
"79 210 OFFCURVE",
"53 45 OFFCURVE",
"51 34 CURVE SMOOTH",
"51 22 OFFCURVE",
"132 -3 OFFCURVE",
"175 -3 CURVE SMOOTH",
"190 -3 OFFCURVE",
"193 14 OFFCURVE",
"186 103 CURVE",
"214 255 OFFCURVE",
"313 357 OFFCURVE",
"340 371 CURVE",
"323 317 OFFCURVE",
"266 79 OFFCURVE",
"291 42 CURVE SMOOTH",
"297 33 OFFCURVE",
"346 -2 OFFCURVE",
"411 -2 CURVE",
"443 7 OFFCURVE",
"460 19 OFFCURVE",
"474 28 CURVE"
);
}
);
width = 506;
}
);
leftKerningGroup = i;
leftMetricsKey = i;
rightKerningGroup = i;
rightMetricsKey = i;
},
{
glyphname = w.001;
lastChange = "2015-11-08 17:05:08 +0000";
layers = (
{
background = {
paths = (
{
closed = 1;
nodes = (
"177 154 OFFCURVE",
"261 409 OFFCURVE",
"221 443 CURVE",
"211 454 OFFCURVE",
"89 485 OFFCURVE",
"62 480 CURVE",
"62 480 OFFCURVE",
"41 434 OFFCURVE",
"58 426 CURVE SMOOTH",
"74 418 OFFCURVE",
"110 409 OFFCURVE",
"104 345 CURVE SMOOTH",
"88 169 OFFCURVE",
"42 74 OFFCURVE",
"66 32 CURVE",
"90 15 OFFCURVE",
"137 -5 OFFCURVE",
"160 -5 CURVE SMOOTH",
"236 -5 OFFCURVE",
"322 172 OFFCURVE",
"349 287 CURVE SMOOTH",
"351 297 OFFCURVE",
"350 430 OFFCURVE",
"338 375 CURVE SMOOTH",
"304 218 OFFCURVE",
"190 89 OFFCURVE",
"187 104 CURVE"
);
},
{
closed = 1;
nodes = (
"461 461 OFFCURVE",
"395 479 OFFCURVE",
"347 479 CURVE",
"326 471 OFFCURVE",
"340 354 OFFCURVE",
"342 346 CURVE",
"332 307 OFFCURVE",
"306 93 OFFCURVE",
"306 45 CURVE SMOOTH",
"305 17 OFFCURVE",
"400 -6 OFFCURVE",
"439 0 CURVE SMOOTH",
"470 5 OFFCURVE",
"491 41 OFFCURVE",
"501 62 CURVE SMOOTH",
"509 76 OFFCURVE",
"519 92 OFFCURVE",
"509 97 CURVE SMOOTH",
"487 106 OFFCURVE",
"485 109 OFFCURVE",
"480 97 CURVE SMOOTH",
"460 59 OFFCURVE",
"446 59 OFFCURVE",
"441 65 CURVE SMOOTH",
"441 67 OFFCURVE",
"439 69 OFFCURVE",
"438 71 CURVE",
"415 111 OFFCURVE",
"458 379 OFFCURVE",
"475 444 CURVE"
);
},
{
closed = 1;
nodes = (
"584 479 OFFCURVE",
"550 484 OFFCURVE",
"515 481 CURVE",
"456 440 OFFCURVE",
"415 359 OFFCURVE",
"389 299 CURVE",
"392 317 OFFCURVE",
"410 439 OFFCURVE",
"402 447 CURVE SMOOTH",
"390 459 OFFCURVE",
"254 484 OFFCURVE",
"243 479 CURVE",
"243 479 OFFCURVE",
"224 435 OFFCURVE",
"239 425 CURVE SMOOTH",
"254 418 OFFCURVE",
"277 405 OFFCURVE",
"276 354 CURVE SMOOTH",
"275 296 OFFCURVE",
"262 145 OFFCURVE",
"249 55 CURVE SMOOTH",
"231 -67 OFFCURVE",
"205 -195 OFFCURVE",
"212 -203 CURVE SMOOTH",
"224 -213 OFFCURVE",
"357 -262 OFFCURVE",
"370 -252 CURVE",
"370 -252 OFFCURVE",
"394 -207 OFFCURVE",
"379 -201 CURVE SMOOTH",
"361 -192 OFFCURVE",
"346 -134 OFFCURVE",
"345 -86 CURVE SMOOTH",
"344 -45 OFFCURVE",
"346 -21 OFFCURVE",
"350 28 CURVE",
"395 4 OFFCURVE",
"443 -6 OFFCURVE",
"493 -4 CURVE",
"665 46 OFFCURVE",
"725 306 OFFCURVE",
"616 440 CURVE SMOOTH"
);
},
{
closed = 1;
nodes = (
"474 63 LINE SMOOTH",
"474 63 OFFCURVE",
"416 68 OFFCURVE",
"367 138 CURVE",
"372 168 LINE",
"380 226 OFFCURVE",
"475 366 OFFCURVE",
"493 372 CURVE",
"504 367 OFFCURVE",
"514 354 OFFCURVE",
"523 332 CURVE SMOOTH",
"556 250 OFFCURVE",
"552 113 OFFCURVE",
"474 63 CURVE"
);
}
);
};
guideLines = (
{
angle = -12;
position = "{710, 437}";
}
);
layerId = "71FD7A9F-05F5-4D76-8D4F-547475A05E4C";
name = "Regular Italic";
paths = (
{
closed = 1;
nodes = (
"635 471 OFFCURVE",
"524 417 OFFCURVE",
"514 417 CURVE",
"556 337 OFFCURVE",
"566 129 OFFCURVE",
"474 63 CURVE",
"437 91 OFFCURVE",
"420 125 OFFCURVE",
"431 246 CURVE",
"436 302 OFFCURVE",
"467 445 OFFCURVE",
"461 452 CURVE",
"454 461 OFFCURVE",
"379 475 OFFCURVE",
"347 479 CURVE",
"326 481 OFFCURVE",
"311 373 OFFCURVE",
"322 282 CURVE",
"303 193 OFFCURVE",
"227 93 OFFCURVE",
"198 93 CURVE",
"161 123 OFFCURVE",
"250 395 OFFCURVE",
"228 440 CURVE",
"197 465 OFFCURVE",
"89 482 OFFCURVE",
"62 480 CURVE",
"62 480 OFFCURVE",
"44 450 OFFCURVE",
"58 426 CURVE",
"91 417 OFFCURVE",
"106 391 OFFCURVE",
"106 365 CURVE SMOOTH",
"106 261 OFFCURVE",
"7 47 OFFCURVE",
"117 11 CURVE SMOOTH",
"139 4 OFFCURVE",
"161 -1 OFFCURVE",
"195 -1 CURVE",
"248 23 OFFCURVE",
"289 92 OFFCURVE",
"315 136 CURVE",
"316 51 OFFCURVE",
"360 30 OFFCURVE",
"388 15 CURVE SMOOTH",
"405 6 OFFCURVE",
"465 -4 OFFCURVE",
"485 -4 CURVE",
"688 47 OFFCURVE",
"706 341 OFFCURVE",
"641 461 CURVE SMOOTH"
);
}
);
width = 701;
}
);
},
{
glyphname = y.001;
layers = (
{
background = {
paths = (
{
closed = 1;
nodes = (
"461 461 OFFCURVE",
"395 479 OFFCURVE",
"347 479 CURVE",
"326 471 OFFCURVE",
"340 354 OFFCURVE",
"342 346 CURVE",
"332 307 OFFCURVE",
"306 93 OFFCURVE",
"306 45 CURVE SMOOTH",
"305 17 OFFCURVE",
"400 -6 OFFCURVE",
"439 0 CURVE SMOOTH",
"470 5 OFFCURVE",
"491 41 OFFCURVE",
"501 62 CURVE SMOOTH",
"509 76 OFFCURVE",
"519 92 OFFCURVE",
"509 97 CURVE SMOOTH",
"487 106 OFFCURVE",
"485 109 OFFCURVE",
"480 97 CURVE SMOOTH",
"460 59 OFFCURVE",
"446 59 OFFCURVE",
"441 65 CURVE SMOOTH",
"441 67 OFFCURVE",
"439 69 OFFCURVE",
"438 71 CURVE",
"415 111 OFFCURVE",
"458 379 OFFCURVE",
"475 444 CURVE"
);
},
{
closed = 1;
nodes = (
"99 45 OFFCURVE",
"157 -9 OFFCURVE",
"266 7 CURVE",
"313 -16 OFFCURVE",
"326 -8 OFFCURVE",
"266 -40 CURVE",
"98 -72 OFFCURVE",
"-20 37 OFFCURVE",
"1 151 CURVE SMOOTH",
"13 215 OFFCURVE",
"74 269 OFFCURVE",
"198 257 CURVE",
"377 207 OFFCURVE",
"439 -48 OFFCURVE",
"330 -174 CURVE SMOOTH",
"275 -238 OFFCURVE",
"171 -241 OFFCURVE",
"110 -216 CURVE SMOOTH",
"62 -196 OFFCURVE",
"30 -158 OFFCURVE",
"24 -137 CURVE",
"24 -137 OFFCURVE",
"41 -128 OFFCURVE",
"59 -121 CURVE",
"69 -139 OFFCURVE",
"107 -162 OFFCURVE",
"152 -156 CURVE SMOOTH",
"180 -152 OFFCURVE",
"219 -125 OFFCURVE",
"236 -85 CURVE SMOOTH",
"268 -11 OFFCURVE",
"260 140 OFFCURVE",
"181 192 CURVE",
"119 192 OFFCURVE",
"113 131 OFFCURVE",
"109 108 CURVE SMOOTH"
);
}
);
};
layerId = "71FD7A9F-05F5-4D76-8D4F-547475A05E4C";
name = "Regular Italic";
paths = (
{
closed = 1;
nodes = (
"39 -224 OFFCURVE",
"232 -314 OFFCURVE",
"344 -194 CURVE SMOOTH",
"466 -64 OFFCURVE",
"354 114 OFFCURVE",
"467 450 CURVE",
"463 457 OFFCURVE",
"353 492 OFFCURVE",
"345 474 CURVE SMOOTH",
"334 449 OFFCURVE",
"338 411 OFFCURVE",
"343 386 CURVE",
"310 175 OFFCURVE",
"327 -20 OFFCURVE",
"244 -112 CURVE SMOOTH",
"182 -180 OFFCURVE",
"108 -177 OFFCURVE",
"48 -114 CURVE",
"15 -136 LINE"
);
},
{
closed = 1;
nodes = (
"236 -5 OFFCURVE",
"327 172 OFFCURVE",
"352 287 CURVE SMOOTH",
"354 297 OFFCURVE",
"350 430 OFFCURVE",
"341 375 CURVE SMOOTH",
"316 215 OFFCURVE",
"190 89 OFFCURVE",
"187 104 CURVE",
"177 154 OFFCURVE",
"261 409 OFFCURVE",
"221 443 CURVE",
"211 454 OFFCURVE",
"89 485 OFFCURVE",
"62 480 CURVE",
"62 480 OFFCURVE",
"41 434 OFFCURVE",
"58 426 CURVE SMOOTH",
"74 418 OFFCURVE",
"110 409 OFFCURVE",
"104 345 CURVE SMOOTH",
"88 169 OFFCURVE",
"42 74 OFFCURVE",
"66 32 CURVE",
"90 15 OFFCURVE",
"137 -5 OFFCURVE",
"160 -5 CURVE SMOOTH"
);
}
);
width = 453;
}
);
leftMetricsKey = u;
rightMetricsKey = j;
},
{
glyphname = u.002;
layers = (
{
background = {
paths = (
{
closed = 1;
nodes = (
"50 372 OFFCURVE",
"52 369 OFFCURVE",
"57 381 CURVE SMOOTH",
"76 419 OFFCURVE",
"90 419 OFFCURVE",
"95 413 CURVE SMOOTH",
"95 411 OFFCURVE",
"97 409 OFFCURVE",
"98 407 CURVE",
"126 353 OFFCURVE",
"69 127 OFFCURVE",
"48 51 CURVE SMOOTH",
"42 24 OFFCURVE",
"101 -4 OFFCURVE",
"140 -4 CURVE SMOOTH",
"257 -4 OFFCURVE",
"332 250 OFFCURVE",
"328 232 CURVE SMOOTH",
"327 223 OFFCURVE",
"300 45 OFFCURVE",
"310 34 CURVE SMOOTH",
"321 23 OFFCURVE",
"452 -9 OFFCURVE",
"466 -2 CURVE",
"466 -2 OFFCURVE",
"486 41 OFFCURVE",
"469 49 CURVE SMOOTH",
"453 57 OFFCURVE",
"430 66 OFFCURVE",
"434 133 CURVE SMOOTH",
"443 268 OFFCURVE",
"469 433 OFFCURVE",
"471 444 CURVE SMOOTH",
"471 456 OFFCURVE",
"390 481 OFFCURVE",
"347 481 CURVE SMOOTH",
"332 481 OFFCURVE",
"329 464 OFFCURVE",
"336 375 CURVE",
"307 218 OFFCURVE",
"211 121 OFFCURVE",
"184 107 CURVE",
"197 161 OFFCURVE",
"253 383 OFFCURVE",
"235 425 CURVE SMOOTH",
"224 451 OFFCURVE",
"159 489 OFFCURVE",
"100 480 CURVE SMOOTH",
"69 475 OFFCURVE",
"45 437 OFFCURVE",
"35 416 CURVE SMOOTH",
"27 402 OFFCURVE",
"17 386 OFFCURVE",
"28 381 CURVE SMOOTH"
);
}
);
};
layerId = "71FD7A9F-05F5-4D76-8D4F-547475A05E4C";
name = "Regular Italic";
paths = (
{
closed = 1;
nodes = (
"177 154 OFFCURVE",
"261 409 OFFCURVE",
"221 443 CURVE",
"211 454 OFFCURVE",
"89 485 OFFCURVE",
"62 480 CURVE",
"62 480 OFFCURVE",
"41 434 OFFCURVE",
"58 426 CURVE SMOOTH",
"74 418 OFFCURVE",
"110 409 OFFCURVE",
"104 345 CURVE SMOOTH",
"88 169 OFFCURVE",
"42 74 OFFCURVE",
"66 32 CURVE",
"90 15 OFFCURVE",
"137 -5 OFFCURVE",
"160 -5 CURVE SMOOTH",
"236 -5 OFFCURVE",
"322 172 OFFCURVE",
"349 287 CURVE SMOOTH",
"351 297 OFFCURVE",
"350 430 OFFCURVE",
"338 375 CURVE SMOOTH",
"304 218 OFFCURVE",
"190 89 OFFCURVE",
"187 104 CURVE"
);
},
{
closed = 1;
nodes = (
"461 461 OFFCURVE",
"395 479 OFFCURVE",
"347 479 CURVE",
"326 471 OFFCURVE",
"340 354 OFFCURVE",
"342 346 CURVE",
"332 307 OFFCURVE",
"306 93 OFFCURVE",
"306 45 CURVE SMOOTH",
"305 17 OFFCURVE",
"400 -6 OFFCURVE",
"439 0 CURVE SMOOTH",
"470 5 OFFCURVE",
"491 41 OFFCURVE",
"501 62 CURVE SMOOTH",
"509 76 OFFCURVE",
"519 92 OFFCURVE",
"509 97 CURVE SMOOTH",
"487 106 OFFCURVE",
"485 109 OFFCURVE",
"480 97 CURVE SMOOTH",
"460 59 OFFCURVE",
"446 59 OFFCURVE",
"441 65 CURVE SMOOTH",
"441 67 OFFCURVE",
"439 69 OFFCURVE",
"438 71 CURVE",
"415 111 OFFCURVE",
"458 379 OFFCURVE",
"475 444 CURVE"
);
}
);
width = 539;
}
);
leftKerningGroup = i;
leftMetricsKey = n;
rightKerningGroup = i;
rightMetricsKey = n;
},
{
glyphname = y.002;
lastChange = "2015-11-08 18:50:07 +0000";
layers = (
{
background = {
paths = (
{
closed = 1;
nodes = (
"186 154 OFFCURVE",
"270 409 OFFCURVE",
"230 443 CURVE",
"220 454 OFFCURVE",
"98 485 OFFCURVE",
"71 480 CURVE",
"71 480 OFFCURVE",
"50 434 OFFCURVE",
"67 426 CURVE SMOOTH",
"83 418 OFFCURVE",
"119 409 OFFCURVE",
"113 345 CURVE SMOOTH",
"97 169 OFFCURVE",
"51 74 OFFCURVE",
"75 32 CURVE",
"99 15 OFFCURVE",
"146 -5 OFFCURVE",
"169 -5 CURVE SMOOTH",
"245 -5 OFFCURVE",
"331 172 OFFCURVE",
"358 287 CURVE SMOOTH",
"360 297 OFFCURVE",
"359 430 OFFCURVE",
"347 375 CURVE SMOOTH",
"313 218 OFFCURVE",
"199 89 OFFCURVE",
"196 104 CURVE"
);
}
);
};
layerId = "71FD7A9F-05F5-4D76-8D4F-547475A05E4C";
name = "Regular Italic";
paths = (
{
closed = 1;
nodes = (
"-23 -203 OFFCURVE",
"73 -274 OFFCURVE",
"161 -243 CURVE SMOOTH",
"357 -175 OFFCURVE",
"508 175 OFFCURVE",
"431 452 CURVE",
"428 459 OFFCURVE",
"342 480 OFFCURVE",
"310 476 CURVE",
"341 406 OFFCURVE",
"349 328 OFFCURVE",
"345 254 CURVE SMOOTH",
"339 147 OFFCURVE",
"307 53 OFFCURVE",
"260 -14 CURVE SMOOTH",
"183 -123 OFFCURVE",
"61 -184 OFFCURVE",
"7 -114 CURVE",
"-30 -136 LINE"
);
},
{
closed = 1;
nodes = (
"61 37 OFFCURVE",
"81 18 OFFCURVE",
"159 -1 CURVE",
"237 2 OFFCURVE",
"326 169 OFFCURVE",
"353 273 CURVE",
"353 409 LINE",
"349 359 OFFCURVE",
"257 155 OFFCURVE",
"198 103 CURVE",
"183 120 OFFCURVE",
"252 377 OFFCURVE",
"230 435 CURVE SMOOTH",
"222 456 OFFCURVE",
"91 485 OFFCURVE",
"64 480 CURVE",
"64 480 OFFCURVE",
"42 435 OFFCURVE",
"59 427 CURVE SMOOTH",
"127 393 OFFCURVE",
"130 417 OFFCURVE",
"67 70 CURVE SMOOTH"
);
}
);
width = 453;
}
);
leftMetricsKey = u;
rightMetricsKey = j;
},
